<svg version="1.2" xmlns="http://www.w3.org/2000/svg" viewBox="0 0 8083 8083" width="8083" height="8083">
	<title>shutterstock_2468703049</title>
	<defs>
		<clipPath clipPathUnits="userSpaceOnUse" id="cp1">
			<path d="m0 0h8083v8083h-8083z"/>
		</clipPath>
		<linearGradient id="g1" x2="1" gradientUnits="userSpaceOnUse" gradientTransform="matrix(238.902,-584.137,492.489,201.419,3845.149,7094.814)">
			<stop offset="0" stop-color="#bd550f"/>
			<stop offset="1" stop-color="#ffb235"/>
		</linearGradient>
		<linearGradient id="g2" x2="1" gradientUnits="userSpaceOnUse" gradientTransform="matrix(884.9,-694.375,2088.159,2661.113,2270.687,4025.473)">
			<stop offset="0" stop-color="#c66210"/>
			<stop offset="1" stop-color="#a35016"/>
		</linearGradient>
		<linearGradient id="g3" x2="1" gradientUnits="userSpaceOnUse" gradientTransform="matrix(-218.474,-63.833,75.263,-257.596,2862.052,6723.192)">
			<stop offset="0" stop-color="#cd620e"/>
			<stop offset="1" stop-color="#a75216"/>
		</linearGradient>
		<linearGradient id="g4" x2="1" gradientUnits="userSpaceOnUse" gradientTransform="matrix(-63.889,-2.271,4.997,-140.584,6663.772,2302.261)">
			<stop offset="0" stop-color="#fdc64f"/>
			<stop offset="1" stop-color="#f7d889"/>
		</linearGradient>
		<linearGradient id="g5" x2="1" gradientUnits="userSpaceOnUse" gradientTransform="matrix(158.743,-97.087,294.257,481.128,6678.924,2414.922)">
			<stop offset="0" stop-color="#f4aa32"/>
			<stop offset="1" stop-color="#fdda78"/>
		</linearGradient>
		<linearGradient id="g6" x2="1" gradientUnits="userSpaceOnUse" gradientTransform="matrix(-323.002,-841.579,827.635,-317.65,3689.045,6919.288)">
			<stop offset="0" stop-color="#e5741e"/>
			<stop offset="1" stop-color="#fcbc28"/>
		</linearGradient>
		<linearGradient id="g7" x2="1" gradientUnits="userSpaceOnUse" gradientTransform="matrix(237.745,-343.218,1298.27,899.302,3154.686,2711.077)">
			<stop offset="0" stop-color="#fad881"/>
			<stop offset="1" stop-color="#f6e6c2"/>
		</linearGradient>
		<linearGradient id="g8" x2="1" gradientUnits="userSpaceOnUse" gradientTransform="matrix(-670.647,-1063.024,1982.258,-1250.579,2778.008,5999.28)">
			<stop offset="0" stop-color="#a14b12"/>
			<stop offset="1" stop-color="#bd6418"/>
		</linearGradient>
		<linearGradient id="g9" x2="1" gradientUnits="userSpaceOnUse" gradientTransform="matrix(91.564,-287.43,298.05,94.947,2343.106,5201.425)">
			<stop offset="0" stop-color="#a54300"/>
			<stop offset="1" stop-color="#c7792b"/>
		</linearGradient>
		<linearGradient id="g10" x2="1" gradientUnits="userSpaceOnUse" gradientTransform="matrix(205.249,75.404,-153.835,418.736,5875.515,1864.39)">
			<stop offset="0" stop-color="#e9cd69"/>
			<stop offset="1" stop-color="#ffe3c8"/>
		</linearGradient>
		<linearGradient id="g11" x2="1" gradientUnits="userSpaceOnUse" gradientTransform="matrix(2463.859,-1956.371,2254.069,2838.781,2953.604,3655.731)">
			<stop offset="0" stop-color="#9c4610"/>
			<stop offset="1" stop-color="#da761e"/>
		</linearGradient>
		<linearGradient id="g12" x2="1" gradientUnits="userSpaceOnUse" gradientTransform="matrix(-2417.55,-245.897,275.867,-2712.205,4562.381,3163.692)">
			<stop offset="0" stop-color="#cc6b16"/>
			<stop offset="1" stop-color="#f49a2c"/>
		</linearGradient>
		<linearGradient id="g13" x2="1" gradientUnits="userSpaceOnUse" gradientTransform="matrix(94.151,-1044.831,1308.7,117.929,2806.605,6376.606)">
			<stop offset="0" stop-color="#f3961a"/>
			<stop offset="1" stop-color="#fbc740"/>
		</linearGradient>
		<linearGradient id="g14" x2="1" gradientUnits="userSpaceOnUse" gradientTransform="matrix(-654.332,1706.193,-2478.071,-950.351,2417.504,3145.611)">
			<stop offset="0" stop-color="#fcb02b"/>
			<stop offset="1" stop-color="#d58c4b"/>
		</linearGradient>
		<linearGradient id="g15" x2="1" gradientUnits="userSpaceOnUse" gradientTransform="matrix(-44.873,151.888,-726.616,-214.668,2355.43,3237.699)">
			<stop offset="0" stop-color="#ffdc8a"/>
			<stop offset="1" stop-color="#f4e8be"/>
		</linearGradient>
		<linearGradient id="g16" x2="1" gradientUnits="userSpaceOnUse" gradientTransform="matrix(-89.202,255.642,-976.956,-340.89,2560.26,3438.042)">
			<stop offset="0" stop-color="#fde4af"/>
			<stop offset="1" stop-color="#f8f3da"/>
		</linearGradient>
		<linearGradient id="g17" x2="1" gradientUnits="userSpaceOnUse" gradientTransform="matrix(1403.792,-1213.264,2127.639,2461.759,3772.036,2780.588)">
			<stop offset="0" stop-color="#d9741c"/>
			<stop offset="1" stop-color="#f6a42c"/>
		</linearGradient>
		<linearGradient id="g18" x2="1" gradientUnits="userSpaceOnUse" gradientTransform="matrix(-1523.057,-202.853,179.507,-1347.77,5144.449,1924.402)">
			<stop offset="0" stop-color="#f9ca64"/>
			<stop offset="1" stop-color="#fdf2c1"/>
		</linearGradient>
	</defs>
	<style>
		.s0 { fill: #020100 } 
		.s1 { fill: #face5d } 
		.s2 { fill: #e48723 } 
		.s3 { fill: #f9b22b } 
		.s4 { fill: #f7e6ba } 
		.s5 { fill: #e8b156 } 
		.s6 { fill: #b65a16 } 
		.s7 { fill: #c16117 } 
		.s8 { fill: #f19f2d } 
		.s9 { fill: #ab5214 } 
		.s10 { fill: url(#g1) } 
		.s11 { fill: #eac28a } 
		.s12 { fill: url(#g2) } 
		.s13 { fill: #6c2b0b } 
		.s14 { fill: #9c460f } 
		.s15 { fill: url(#g3) } 
		.s16 { fill: url(#g4) } 
		.s17 { fill: url(#g5) } 
		.s18 { fill: url(#g6) } 
		.s19 { fill: url(#g7) } 
		.s20 { fill: url(#g8) } 
		.s21 { fill: url(#g9) } 
		.s22 { fill: url(#g10) } 
		.s23 { fill: url(#g11) } 
		.s24 { fill: url(#g12) } 
		.s25 { fill: url(#g13) } 
		.s26 { fill: #f77810 } 
		.s27 { fill: url(#g14) } 
		.s28 { fill: url(#g15) } 
		.s29 { fill: url(#g16) } 
		.s30 { fill: url(#g17) } 
		.s31 { fill: url(#g18) } 
	</style>
	<g id="Page 1" clip-path="url(#cp1)">
		<path id="Path 2" class="s0" d="m4293.3 846c58.4-2.3 117-0.3 175 7.7 85.5 11.7 169.4 36.7 252.1 60.7 54.5 15.8 110.3 28.4 160 57.1 40.5 23.3 74.9 59.6 106.2 93.9 21.7 23.8 38.1 48 51.1 77.4 1 2.3 10.3 25.1 10.8 25.3 9.4 4.4 100.3-5.6 118.4-5.8 34.4-0.4 69.1 1 103.1 6.3 66.2 10.3 127.6 33.4 190 56.7l194.2 71.8c106.6 37.7 220.4 64.9 321.1 117.1 67.8 35.2 125.1 82.8 183.7 131.2 43.7 36.1 84.1 73.5 101.4 129.5 10.9 35.2 11.8 77 15.3 113.7l281.7 171.1c92.1 57 195.8 107.1 271.5 185.9 30.8 32.1 55.3 72.2 70.6 114 7.3 20 12.6 61.5 25.5 76.4 10.7 12.5 30 23.2 43.2 34.2 21.3 17.6 40.9 37.7 60.5 57 67.3 66.5 125.1 141.8 193 207 26 25 54.9 42.2 81.8 65.1 43.3 36.9 41.3 93.3 45.6 145.3 35.2 32.4 62 78.3 84.3 120.2 45 84.8 76.9 169.6 99 263.1 27 114.8 28.9 253.8-35.6 356.7-148.4 237-462.8 306.8-723.6 302.3-25.6-0.4-52.6-2.1-77.6-7.9-14.1-3.2-45.4-19.4-56.4-18.4-18.3 1.7-47.9 21.4-66.2 28.4-33.7 12.7-70.1 23.2-105.3 30.7-23.6 5-47.4 8.8-71.4 10-21.5 1-62.9-2.7-81.6 5.9-25.1 11.6-49.2 33.5-72.1 49-45.5 30.8-96.6 55.9-148.7 73.4-37.3 12.5-73.5 15.3-112.6 15-5.6-0.1-24.3-2.3-27.8-0.4-2 1.1-9.4 12.8-11.3 15.2l-40.3 48.7c-89.4 102.8-202.2 173.8-334.4 207.5-67.7 17.2-139.3 22.8-208.3 9.5-21.4-4.1-116.4-48.7-120.5-48-2.4 0.5-30.3 36.4-33.9 40.6-44.8 53.4-91.9 103.5-142.6 151.3-53.1 50.1-114.3 99-178.9 133.2-42.2 22.4-92.2 42-130.5 70-44.9 32.8-77.7 88.2-115.7 129.3-55.9 60.5-119.9 125.6-191.9 166.7-93.3 53.2-208.1 71.9-311.7 96.2-20.6 4.8-137.8 32.3-143.8 40.4 0 0-0.9 11.9-1 13.3l-5.6 75c-9 106.7-42.3 217.5-98.9 308.7 19 35.8 34.6 71.3 43.3 111 20.6 93 8.4 187.8 7.9 282-0.4 96.7 12 208.4 51.7 297.8 31.1 69.9 79.8 132.9 124.9 194.2 19.1 25.9 38 56.8 60.8 79.2 36.9 36.1 75.9 56.2 103.9 102 32 52.2 46.9 127.9 31.7 187.9l-2 7.6c-23.5 92.7-83.5 153.7-160.4 206.4-28.8 19.7-36.8 62.2-61.8 89l-10.6 10.3c-39 35.5-84.5 54.9-130.7 78.6-27.3 14-54.3 30.2-82.9 41.2-108.2 41.6-239 43.1-352.7 27.6l-108.3-18.8c-49.1-6.2-99.2-5.1-148.5-8.4-94.5-6.3-217.8-28.9-292.5-91.2-19-15.9-35.7-37.6-52-56.3l-96.4-2.2c-390.2-19.9-723.3-244.5-989.5-515.1-30.3-30.7-56.2-65.5-85.5-97.1-5-5.4-20.3-23.5-27-26-13-4.8-47.6-0.7-62.8-1.4-55.1-2.5-114.6-22.2-164.6-44.5-103.7-46-190.3-106.5-266.6-190.5-154.4-170.2-243.6-380.1-321.4-593.1-36.9-100.7-72.9-204.9-95.4-309.8-16.7-77.9-26.2-159.1-32.8-238.5-7.2-87 0.5-171.6 4.6-258.2-34.2-23.6-63.8-47.4-92.5-77.4-116.1-121.3-157.8-302.9-154.5-466.3 2.1-105 21.3-214.1 56.3-313.1 63.1-178.5 175-334.7 258.1-504l77.7-180.3c17.2-43.5 32.8-87.2 55.8-128.1 23.2-41.2 52.6-73.1 86.5-105.6-29.5-84.3-21.8-183.4-4.5-269.5 39.7-197.8 146.6-369.1 275.6-521.2 59.7-70.5 123.9-138.4 194.2-198.4 60.5-51.7 135.6-92.1 191.5-147.9 26.2-26.2 43.4-57.3 61.1-89.5 12.7-23 24.6-47.8 40.9-68.4 33.6-42.6 82.5-78.5 127.5-108.4 222.1-147.4 527-198.1 786.5-144.8l8-10.3c31.8-37 71.5-68.2 109.5-98.5 180.6-143.5 404.3-247.4 624.8-313l281.1-70.6 174.5-60.6c120.2-40 240.1-64.7 366.6-72z"/>
		<path id="Path 3" class="s1" d="m3960.4 6587c21.2-21.1 45.6-36.9 74.7-44.8 33.4-9.1 56-6.4 86 10.4l-4.2 0.4c-10.1 0.8-19.1 0.9-29.2-0.1-34.9-3.5-71 23.2-96.8 44.6-7.9 6.6-13.6 12.5-18.5 21.7-4.7-10.7-8.9-21-12-32.2z"/>
		<path id="Path 4" fill-rule="evenodd" class="s2" d="m3944.7 6823c14.9 7.5 32.7 10.6 48.9 13.8l2.9-10.1-2.7-2.4-4.5-4.1c-8.6-8-21-16.9-25.5-28.1l-2.6-7.3c-5.6-14.7-7.8-28.5-9.9-44.1l-2.6-22.3-4.7 2.5c-4.1 14.4-8.5 38.8-23 46.3l-13.8 4.8c7.7 21.5 16.1 40.2 37.5 51zm3308.5-4040.8c15.9 25.2 7.2 72.5 28.4 90.4 3 2.5 12.8 4.8 16.8 6.3l3-71.7c-0.3-12.1-1.3-41.1-7.3-51.7-3.5-6.3-31.8-20.4-39.1-25.3-12.9-8.7-24.4-20.4-35.7-31.1l17.2 75.6c8 1.7 12.1 0.3 16.7 7.5z"/>
		<path id="Path 5" class="s3" d="m3960.4 6587c3.1 11.2 7.3 21.5 12 32.2-15.4 35.4-18 67.7-17.5 105.8l-3.6 15.7-2.6-22.3-4.7 2.5c-4.1 14.4-8.5 38.8-23 46.3l-13.8 4.8-3-17.6c-6.3-65.1 13.6-118.5 56.2-167.4z"/>
		<path id="Path 6" class="s4" d="m4121.1 6552.6l15.5 2.1c-1.1 9.5 0 12.1-8.4 18-12.8 9-33.9 12.8-48.7 18-42.6 15.1-96.8 45.1-108.7 92.7-4.4 17.4-3.7 27.1-15.9 41.6-0.5-38.1 2.1-70.4 17.5-105.8 4.9-9.2 10.6-15.1 18.5-21.7 25.8-21.4 61.9-48.1 96.8-44.6 10.1 1 19.1 0.9 29.2 0.1z"/>
		<path id="Path 7" class="s5" d="m2307 6723.8c28.4-4.1 36.9-1.1 60.6 13.1l1.5 0.7c4.7 46.9 16.6 90.5 31.5 135-20-0.1-55.8-23.7-73.7-33.4-10.9-37-14.8-77.2-19.9-115.4z"/>
		<path id="Path 8" class="s6" d="m678.5 4585.3c-21.8-61.9 0.9-142.1 11.6-205 11.6 53.7 23.8 102.6 49.1 151.7l-1.6 6.2c-1.8 7.5-1.8 14.2-1.5 21.9l3.9 5.9c0 9.1 0.4 7.5-4 15.8l-1.9 7.8-1.2 4.7c-1.1 5.8-1 11.2-0.8 17.1l-3.9 3.9-3.9-5.9c-4.9-6.6-6.1-9.3-13.9-11.9l-2-9.8c-6.7 10-0.4 16.5-9.8 23.6-8.8-7.1-9.5-16.8-11.4-27.4z"/>
		<path id="Path 9" class="s7" d="m739.2 4532c20.9 27.1 41.1 51.3 66.5 74.6l6 5.8-32 122.9c-43.3-36.5-93-91.2-101.2-150l8.7-1.4c1.9 10.6 2.6 20.3 11.4 27.4 9.4-7.1 3.1-13.6 9.8-23.6l2 9.8c7.8 2.6 9 5.3 13.9 11.9l3.9 5.9 3.9-3.9c-0.2-5.9-0.3-11.3 0.8-17.1l1.2-4.7 1.9-7.8c4.4-8.3 4-6.7 4-15.8l-3.9-5.9c-0.3-7.7-0.3-14.4 1.5-21.9z"/>
		<path id="Path 10" class="s8" d="m7236.5 2774.7c8 1.7 12.1 0.3 16.7 7.5 15.9 25.2 7.2 72.5 28.4 90.4 3 2.5 12.8 4.8 16.8 6.3-6.1 77.7-18 153.6-50.1 225.3-6.9 15.6-13.4 34.2-22.8 48.3-8.2 2-16.3 3.6-24.2 6.7l-1.5 2.5c-8-3.6-15.5-8.3-23.1-12.7 10.2-6.6 12.8-16.3 17.1-27 7.5-11.3 11.5-20.9 15.4-33.8l18.2-108.8c23.3-31.5 12.8-161.1 9.1-204.7z"/>
		<path id="Path 11" fill-rule="evenodd" class="s5" d="m7193.8 3122c-4.3 10.7-6.9 20.4-17.1 27 7.6 4.4 15.1 9.1 23.1 12.7l1.5-2.5c12.2-20 9.1-48.2 7.9-71-3.9 12.9-7.9 22.5-15.4 33.8zm-5609.9 3062.4l-10.2 14.2-5.4 0.5c-21.4 2.3-28.6 7.3-46.1 19.2-5.2 3.5-10.3 5.9-15.9 8.7-5.5 2.7-6.9 5-10.1 10.1 56.4 50.5 121.3 72 193 90.1-9.3-48.9-12.2-96.3-10.3-146l-3.4-16.4c-8 0.7-10.5 5.4-16.3 10.6-25.4 7.1-49 9.4-75.3 9z"/>
		<path id="Path 12" class="s2" d="m1355.6 5627.3l4 10.3-3.9 5.8-0.7 3.6c-1.5 6.5-0.4 2.8-3.8 10-5.4 11.2-4.2 22.9-9.4 33.8-2.9 6.1-1.9 11.1-1.4 17.6l-1.3 7c-4.1 22-10.7 43.2-14 65.4-3.2 22.6-2.7 45.3-6.5 67.8-10.9 65 47.7 193.8 88.4 246 31.8 40.6 80.9 79.8 133.6 86.2l43.3 3.6-10.2 14.2-5.4 0.5c-21.4 2.3-28.6 7.3-46.1 19.2-5.2 3.5-10.3 5.9-15.9 8.7-5.5 2.7-6.9 5-10.1 10.1-77.4-55.6-142.5-162.8-173-251.5-23.3-67.6-36.8-143.4-22.2-214.4 10.3-49.8 32.6-98.5 54.6-143.9z"/>
		<path id="Path 13" class="s7" d="m3638.2 5348.4c104.6 74.2 220.2 198.3 242.6 330.3 5.1 29.6 10 66.9 3.9 96.3-30.3-119.3-105.4-216.3-200.3-292.4-20-16-42.5-28.4-62.4-44.3l12.7-10z"/>
		<path id="Path 14" class="s5" d="m7402 3042.7c16.1 38.1 38.3 83.3 45.1 124.2 7.8 46.4-7.9 99.8-25.4 142.5-36.3 88.8-101.9 175.6-170.8 242.1l-3.9-13.6c12.6-33.2 34.2-62.8 48.7-95.4 27.2-60.8 45.3-127.5 62.6-191.8 9.8-36.2 18.8-72.6 25.4-109.5 5.2-29.1 4-73.6 18.3-98.5z"/>
		<path id="Path 15" class="s5" d="m7463.9 3285.4c3.2-14.3 4.9-33.4 11.4-46.3 19.4 122.7 27.6 258.1-50.2 363.7-39.2 53.2-94.8 87.4-151.5 118.9-32.2 17.9-62.1 34.8-97.8 45l-2.7-4.6c41.5-30.5 87.5-58.6 117.4-101.2 61.3-87.1 108.6-173.5 148.3-272.3 14.2-35.3 31.7-64.4 25.1-103.2z"/>
		<path id="Path 16" class="s3" d="m3864.1 6500.2c54.5-33.4 106.3-44.2 169.4-29.3 19.5 4.6 53.8 11.9 68.5 25.7-86.9 13.7-157.1 48.1-210.9 119.9-37.5 50.1-44.5 109.7-35.4 170 4.2 27.8 14.9 51.4 31 74.2l-12.5 15.6c-6.8-1.8-14-3.6-20.3-6.9-25.2-12.9-41.3-43.9-49.5-69.9-26.1-82.5-10.6-156 26.9-231.7-8.7-6.6-12.4-12.5-17.9-21.7 14.9-17.6 32.9-31.4 50.7-45.9z"/>
		<path id="Path 17" class="s8" d="m3813.4 6546.1c14.9-17.6 32.9-31.4 50.7-45.9l5.6 14.1c-10.5 19.5-24.6 36.3-38.4 53.5-8.7-6.6-12.4-12.5-17.9-21.7z"/>
		<path id="Path 18" class="s7" d="m6756.3 3803.1c67.8 20.8 178.7-5.8 242.8-31.7 225.8-91.4 371.5-265.7 464.8-486 6.6 38.8-10.9 67.9-25.1 103.2-39.7 98.8-87 185.2-148.3 272.3-29.9 42.6-75.9 70.7-117.4 101.2l2.7 4.6c-97.6 37.3-209.6 55.7-313.3 66.3-62 6.3-125.9 11.4-187.9 3.1 20-14.6 42.2-25.5 63.9-37.2z"/>
		<path id="Path 19" class="s5" d="m2411.6 6685.9c9.8-11 16.2-15.7 30.5-19.6l10.9-3.2 5.7-1.9c38.7-12.8 67.1-40.8 103.9-54.5-10.4 108.1-5.2 238.1 67.9 326l22.7 25.2c-77.1-20.7-154.2-41.8-227.5-74-17.9-59.5-34.2-131.9-29.3-194.3 14.9 40.5 29.3 71 59.2 102.6-16.8-35.5-31.9-68.7-44-106.3z"/>
		<path id="Path 20" fill-rule="evenodd" class="s7" d="m7250.9 3551.5l-3.9-13.6c12.6-33.2 34.2-62.8 48.7-95.4 27.2-60.8 45.3-127.5 62.6-191.8 9.8-36.2 18.8-72.6 25.4-109.5 5.2-29.1 4-73.6 18.3-98.5l-22.4-57.9c-6 19.9-9.2 40.1-15.5 59.8-56.4 177.7-133.2 354.1-229.7 513.6-14.7 24.2-29.6 47.9-46.6 70.4-7.6 10.1-32.9 37.3-34.8 49.4-0.8 4.7 1.9 10.9 3.9 14.9 70.7-35.3 139.1-84.7 194-141.4zm-4037.7 847.1l184.5 145 100.1 89.9c13.4 12.9 25.2 28.3 39.2 40.4l8.6 0.5c24.2 16.5 45.1 38.2 66.3 58.2 43.9 41.4 83.6 83.6 119.5 132.3 95.5 129.6 138.5 308.3 111.7 467.5l-1.3 7.1 2.5 0.3 6.9-31.8c27.1-125.9-6.7-284.4-50.3-402.6-78.4-212.7-271.4-352.7-460.6-462.7-61.1-35.5-122.5-70.8-186.7-100.5 10.5 23.7 39.5 40.1 59.6 56.4z"/>
		<path id="Path 21" class="s9" d="m5253.5 1775.1l-200.6-569.1 55 8.3 3.6 4.2c5.1 5.3 8.9 6.9 15.5 9.6 69.1 29.3 113.2 84 140.3 152.3 13.2 33.1 21.1 66.3 26.7 101.4 5.9 37.5 6.6 90.2-0.1 127.5l-24.2 126.9-1 4.1c-3.1 13.3-12.7 22.7-15.2 34.8z"/>
		<path id="Path 22" class="s6" d="m6738.5 3798.9c53.3-30.5 108.2-64.4 155.4-103.8 138.4-115.8 253.3-269.7 334.5-430.5 34.3-67.9 64.2-137.2 83.3-211.1 13.3-51.6 19.7-103.5 24.6-156.5 18.7 20.2 33.5 61.4 43.3 87.8-6 19.9-9.2 40.1-15.5 59.8-56.4 177.7-133.2 354.1-229.7 513.6-14.7 24.2-29.6 47.9-46.6 70.4-7.6 10.1-32.9 37.3-34.8 49.4-0.8 4.7 1.9 10.9 3.9 14.9-56.8 33.9-121.1 62.1-184.2 82-22.3 7-45.6 13.1-68.6 17.2-16.9 2.9-33 1.3-47.8 11z"/>
		<path id="Path 23" class="s5" d="m2900 6799.1c12.1-4.1 15.4-7.7 27.3-2.1 11.4 23.9 16.8 47.7 30.7 71.1l2.7 4.6c21.4 35.1 60 65.7 87.3 96.9 12.9 14.7 22 32.1 35.7 45.9 6.9 6.9 11.9 8.9 20.4 13.3l7.9 5.6c-6.9-23.5-3.7-28.8 4.1-50.9 6.4-5.5 12.6-9.8 19.9-14.1 7.9 22 15.8 41.1 31.8 58.8 8.6 18.3 21 31.2 39.2 40.6l1.6 0.6 12.4 8.2c8.4 5.1 29.5 17.2 38.8 18.3 8.2 0.9 46.1-42.5 56.1-49.2 11.3-7.7 26-10.9 39.1-14 9.6 7.7 19 16.5 29.8 22.5 25.8 30.5 64 37.1 101 46 28.8-12.3 54.7-0.9 84 3.2l92.4 9.9 74-16.8c38.7 29.6 75.8 47.3 123.5 57.2l-66.9 18.7c-90.4 20.3-196 19.4-286.9 2.6-41.3-7.6-80.7-19-122.8-23.6-100.5-11-241.5 3.9-328.5-57.6-90.8-64.2-135.9-191.2-154.6-295.7z"/>
		<path id="Path 24" class="s8" d="m3485.8 7101.2c28.8-12.3 54.7-0.9 84 3.2l92.4 9.9c-18.8 6.1-48 1.3-68.8 4.2l7.9 3c-41.6 3.6-75.9-10.3-115.5-20.3z"/>
		<path id="Path 25" class="s10" d="m4136.6 6554.7c7.5-5.3 13.9-12.9 23.2-11.2 29.6 5.7 60.1 43.7 74.8 67.8 30.6 50.5 41.7 117.2 25.8 174.3-19.3 69.6-82 129.7-144.1 163.2-64.6 34.9-171.2 73-244.9 51.6-52.4-15.3-95.8-53.1-121.6-100.9l-2.1-4.4-24.3-36.5 3.7 20.3c11.8 60.1 35.6 107.3 87.6 141.7 81.7 54.1 160.9 28.7 248.5 11.2-16.1 15.9-32.4 31.3-51.2 44.1-39.3 26.8-75 42.9-124.1 32.8-61.3-12.7-115.7-45.1-150.1-98-36.4-56.1-49.8-141.8-36-207.2 2.7-95.9 51.2-185.8 111.6-257.4 5.5 9.2 9.2 15.1 17.9 21.7-37.5 75.7-53 149.2-26.9 231.7 8.2 26 24.3 57 49.5 69.9 6.3 3.3 13.5 5.1 20.3 6.9l12.5-15.6c26.7 26.7 55.8 49 93.6 57.3 78.7 17.1 133.6-26.4 195.7-67.2-73.9 23.3-126.6 51.3-203.3 20.8l36.4 0.9c66-0.6 123.2-21.1 170.1-69.5 25.4-26.3 38.2-54.9 36.4-92-1.2-22.7-12.9-42-29.4-57-22.7-20.6-53.1-30.1-83.6-27.9-32.8 2.4-62 18.4-83 43.5-19 23-27.8 51.2-24.4 80.9 2.9 25.4 10.2 38.6 30.5 53.6l3.8 2.9 5.4-2.2c20.7-8.6 40.9-20.1 49.3-42.5 2.4-6.2 3.4-13.2 4.4-19.7l-5.8-5.9c-15.8 3.9-31.5 8.2-47.8 10.2-4-12-1.6-24.5 4.6-35.7 10.4-18.9 32.1-30.1 52.3-35.2 18.1-4.7 42.9-2.4 58.6 8.3 10.3 7.1 18.2 16.2 20.5 28.7 4.6 25.7-5.5 51.3-21.1 71.3-25.8 33.3-65.3 48.7-106.2 53.3-16.8 1.9-33.3 0.6-50.1-0.8l2.9-10.1-2.7-2.4-4.5-4.1c-8.6-8-21-16.9-25.5-28.1l-2.6-7.3c-5.6-14.7-7.8-28.5-9.9-44.1l3.6-15.7c12.2-14.5 11.5-24.2 15.9-41.6 11.9-47.6 66.1-77.6 108.7-92.7 14.8-5.2 35.9-9 48.7-18 8.4-5.9 7.3-8.5 8.4-18z"/>
		<path id="Path 26" class="s2" d="m3208.3 6185.6l-0.4 4.1c-2.9 23.9-15.6 43.5-26.4 64.6-31.1 60.1-51.4 124.4-18.2 188.3l5.9 2c7 3.8 12.1 11.4 19.9 16l11.7 9.6 5.2 0.2c17.9 2.1 40.9 27.1 52.7 40.2-85 119.1-150.1 291.8-126.8 439.4l4.1 19.4c-7.3 4.3-13.5 8.6-19.9 14.1-7.8 22.1-11 27.4-4.1 50.9l-7.9-5.6c-8.5-4.4-13.5-6.4-20.4-13.3-13.7-13.8-22.8-31.2-35.7-45.9-27.3-31.2-65.9-61.8-87.3-96.9l-2.7-4.6c-13.9-23.4-19.3-47.2-30.7-71.1-11.9-5.6-15.2-2-27.3 2.1-6.2-50.2-5.4-100 6.1-149.5 42.4-181.8 159-346.6 302.2-464z"/>
		<path id="Path 27" class="s0" d="m3184 6499.6c-15.2 35.6-39.6 67.8-56.3 103.2-42.3 90.2-64.1 198.6-55.8 297.9 2.6 30.7 11.5 60.6 13.4 91.1l-4.7-3.9c-20.3-36.2-31.8-75.4-33.5-116.9-5.8-138.5 43.2-270.4 136.9-371.4z"/>
		<path id="Path 28" class="s7" d="m7159.8 3276.2c-21.9 42.2-51.2 81.4-79.1 119.8-69.1 94.9-144.3 180.1-236.3 253.6-107.4 85.9-234.9 156.2-370.4 184.1-23.8 4.9-47.5 11.6-71.9 8.9-2.3-15.4 76.9-34.9 90.7-39.9 61.9-22.5 111.4-67.9 147.7-121.9l-178.6 102.5c61.9-62.6 117.9-134.7 167.4-207.5 115.5-170 185.6-362.3 239-559.4 56.3-208.1 98.9-443.5 57.7-658.2 30.6 28.6 53.7 57.9 77.9 92.1 0.5 71.2 7.7 143.4 2.3 214.5-10.2 133.3-48.7 268.6-90 395l-96 274.8c-36.7 96-91.2 195.2-109.8 296.2 84.4-44.1 148.9-98.6 220.5-160.4 61.5-53.2 127-111.5 177.4-175.2 9.2-11.8 21.7-24 22.9-39.5l3.8-2.8c31.5-24.3 55.6-63.2 80-94.5-9.8 21.3-19.8 41.7-32 61.8l-9.3 18.3-16.4 29-2.9 4 0.8 4.1z"/>
		<path id="Path 29" class="s9" d="m5412.3 2978.4l-3.3-8.9 3.9-3.9c15.4 23.3 7 97.8 7.9 128.3l4-2c1.5-8.3 3-16.1 5.5-24.2-0.6 90.1-8.5 177.6-18.7 266.9-20.1 175.2-50.5 344.9-100 514.5-23.5 80.2-49.9 165.3-86.5 240.5-13.8 28.5-33.3 54.7-50.1 81.4-52.1 82.7-108.1 164.8-177.7 234-52.8 52.4-119.1 92.1-187.3 121-21.3 9-44.7 19.5-68.1 19.8-18.4 0.2-41.6-11.4-53.6-25.2-13.8-15.7-13.4-46.9-11.7-66.9l14.1-91.7 45.7 1.4c10.6 3.8 22 7.6 33.2 8.9 45.6 5.4 95.4-19.5 130.3-47 81.5-63.9 135.4-160 185.1-249.2 157.9-283.2 260.7-598.5 308.6-919.1z"/>
		<path id="Path 30" class="s0" d="m5412.3 2978.4c6.3 116.7-4.7 228.1-21.1 343.4-33.3 235.5-92.4 459.7-192.5 676-47.5 102.4-101.7 203.1-177.3 287.9-55.5 62.2-120.2 107.6-206.4 110.5-29.1 0.9-52.5-5.4-75.7-22.9l-2.9-9.9c10.6 3.8 22 7.6 33.2 8.9 45.6 5.4 95.4-19.5 130.3-47 81.5-63.9 135.4-160 185.1-249.2 157.9-283.2 260.7-598.5 308.6-919.1z"/>
		<path id="Path 31" class="s7" d="m3086.4 3541.1c239.7 194.4 470.9 431.5 608.5 711 34.6 70.4 60.3 144.6 84.5 219 25.9 79.7 51.6 163 60 246.8l2.7 113.3-46-86c-7.8-14-20.7-31-26.4-45.3-5-12.5-2-33.5-2.2-47-0.2-16.3-3.3-32.4-5.9-48.5-15.9-97.7-53.7-192-111.8-272.5-23.4-32.4-49.1-63.1-83.1-84.7 24.3 34 49.5 67.9 69.6 104.7 49.5 90.2 77.9 187.7 97.2 288.3-128.7-193.3-318.8-325.2-516.4-441.5 72.4-9.4 164.2 74.8 224.4 109.1 3.8-3.4 4-3.1 6.9-8.2 9.8-16.9 4.9-65.1 0.9-83.9-6.2-29.1-12.5-59-22.9-86.9l-13.8-40.4c-12.5-37.8-29.3-77.3-47.1-113l-36.4-68.5c-46.4-88-103.6-175-162.7-254.9l-47.3-61.3c-10.5-12.9-26.1-25.5-30.8-41.8z"/>
		<path id="Path 32" class="s2" d="m7003.9 2450.3l125.7 150.9c23.6 29.7 54 58.8 61.7 96.8 14.4 41.1 27.3 91.6 26.5 135.2l9.6 146.2-18.2 108.8c-3.9 12.9-7.9 22.5-15.4 33.8-4.3 10.7-6.9 20.4-17.1 27 7.6 4.4 15.1 9.1 23.1 12.7l1.5-2.5c7.9-3.1 16-4.7 24.2-6.7l-65.7 123.7-4.6-0.6-0.8-4.1 2.9-4 16.4-29 9.3-18.3c12.2-20.1 22.2-40.5 32-61.8-24.4 31.3-48.5 70.2-80 94.5l-3.8 2.8c-1.2 15.5-13.7 27.7-22.9 39.5-50.4 63.7-115.9 122-177.4 175.2-71.6 61.8-136.1 116.3-220.5 160.4 18.6-101 73.1-200.2 109.8-296.2l96-274.8c41.3-126.4 79.8-261.7 90-395 5.4-71.1-1.8-143.3-2.3-214.5z"/>
		<path id="Path 33" class="s1" d="m7033.4 2745.8l-6.3-9.1 5.9-2 2-3.9c6.3-8.4 3.9-17 4-27.7l3.9-3.9c0.7-6.4 1.1-12 0.5-18.5l-0.5-5.2 3.9-3.9 0.1-7.9 3.9-4c0-10.5 2.8-12.8 7.9-21.6l11.8-2c9.9 0 22.6 9 28.9 16.2l4.6 5.5h13.9c9.7 5.1 18.7 14 24.9 23l3.5 5.4c7.6 11.9 11.6 22.6 15.8 36.1l-5-5.9-20.6-33c-11.5-13.8-16.6-14-33.5-16.1-12.2-15-22-22.1-41.3-24.6l16.4 16.4c-2.6 31-17.4 58.1-18.7 90.2 5 15 9.1 30.1 11.5 45.7l-8.7-7.8c-6.6-9.2-8.7-10.4-18.4-16.7l-4.6-25.9z"/>
		<path id="Path 34" class="s0" d="m7033.4 2745.8l5.8-1.2 4.6 25.9c-5.3 110.3-19.8 214.6-55.2 319.7-1.8-22.7 3.7-48.4 5.6-71.2 8.1-93.5 21.7-181.2 39.2-273.2z"/>
		<path id="Path 35" class="s3" d="m7061.7 2642.7c19.3 2.5 29.1 9.6 41.3 24.6 39.2 58.3 70.7 109.8 93.3 177.1l16.3-1.1 5.2-10.1 9.6 146.2-18.2 108.8c-3.9 12.9-7.9 22.5-15.4 33.8-4.3 10.7-6.9 20.4-17.1 27 7.6 4.4 15.1 9.1 23.1 12.7-22.6 41.9-59.8 87.7-106.5 101.8l-9.7 2.7-36.2 6.8c-20 3.5-41.8 1.4-62 0.7-8-4.7-14.1-10.8-17.3-19.6-12.3-34.1 4.6-111.4 17.5-145.3 2.6-6.8 3.7-11.1 3-18.6 35.4-105.1 49.9-209.4 55.2-319.7 9.7 6.3 11.8 7.5 18.4 16.7l8.7 7.8c-2.4-15.6-6.5-30.7-11.5-45.7 1.3-32.1 16.1-59.2 18.7-90.2z"/>
		<path id="Path 36" class="s11" d="m7159.1 3064.3l7.4 14.7 11.9 1.1 18.2-17.7-3.6 40.6c-0.8 7-0.3 12.1 0.8 19-4.3 10.7-6.9 20.4-17.1 27-12.8-27.1-15-55.3-17.6-84.7z"/>
		<path id="Path 37" class="s0" d="m7105.7 2840.4l3.9 3.4c9.3 20.1 7 43.1 6.4 64.8-2.1 80.5-20.5 160.6-46.6 236.6l-1.3 0.9-3.7-2.9z"/>
		<path id="Path 38" class="s8" d="m6985.4 3273.7c33.7-31.7 52.5-71.3 77.2-109.3l7.9 0.1c16.9 26.8 12.5 70.7 13.1 101.7l-36.2 6.8c-20 3.5-41.8 1.4-62 0.7z"/>
		<path id="Path 39" class="s4" d="m7061.7 2642.7c19.3 2.5 29.1 9.6 41.3 24.6 39.2 58.3 70.7 109.8 93.3 177.1l16.3-1.1 5.2-10.1 9.6 146.2-18.2 108.8c-3.9 12.9-7.9 22.5-15.4 33.8-1.1-6.9-1.6-12-0.8-19l3.6-40.6-18.2 17.7-11.9-1.1-7.4-14.7c0.4-61-18-119.4-29.1-178.5-5.2-27.6-6.8-54.4-13.6-82l-6.4-1-11.9 15.4c-7.4-0.3-14.1 0.1-20.7-3.7-5.1-2.9-5.3-13.8-6.5-19.5-2.4-15.6-6.5-30.7-11.5-45.7 1.3-32.1 16.1-59.2 18.7-90.2z"/>
		<path id="Path 40" class="s1" d="m7196.3 2844.4l16.3-1.1 5.2-10.1 9.6 146.2-18.2 108.8c-3.9 12.9-7.9 22.5-15.4 33.8-1.1-6.9-1.6-12-0.8-19l3.6-40.6c10.3-72.8 18.5-145.7-0.3-218z"/>
		<path id="Path 41" class="s12" d="m1258.4 2664.7c74.9-72.6 203.7-97.1 304.2-95.6 105.4 1.7 204.4 29.2 305.1 57.5 406.5 114.5 776.4 335.3 1102.8 599.4 112.5 91.1 220.3 183.8 320.6 288.3 118.4 123.4 227.8 260 326.3 399.9 159.9 227 318.2 483.7 313 771.6-1.6 89.3-14.4 172.6-51 254.3-11.9-28.2-30.7-67.6-24.7-98.1 10.5-53.2 6.1-121-0.3-174.6-27.6-233-126.7-439.4-261.1-629.2-83.1-117.4-169.6-229.9-272.8-330.7l-84.3-79.1c-19.4-17.7-40.1-31.1-47.3-57-9.9-35.2-44.5-83.4-68.8-110.6l-0.6-3.3c-7.6-16.5-26.3-34.9-38.2-48.9-65.9-77.9-145.8-143.7-225.4-206.9l-274.8-203.6c-34.4-23.7-72-55.3-110.4-71.3l-273.4-146.7c-54.7-24.4-112.5-43.2-169.6-61.2-164.7-52.1-360.8-88.2-531.9-48.4-26.9 6.3-53.3 17.5-79.1 27.3l-1.6-7.3c10-9.1 21.1-13 34.1-16.2 4.7-1.2 5.7-3.3 9.1-6.7l-5.9-5.9c-10.6 7.1-23.1 2.4-35.5 5.9-17 4.9-34.7 15.8-49.4 25.6-16.1 10.8-28.6 23.8-48.3 23.8l0.9-9.9-5.8-5.9c-8.4 5.6-12 3.9-21.8 4 7.3-7.6 14.1-14.2 23.6-19l41.6-20.6c14.8-7.6 30.1-11 43.4-21.7v-3.9c-7.9-2.6-8.3-1.4-15.8 2-8.4 3.9-17.3 6.6-25.4 10.6l-53.5 26.9-15.8 5.9c-5.1 3-6.1 5.8-12.4 7-19.7 4-23.1 6.9-36.9 21.6l-9.5-14.2c8.8-8.7 18-17.1 23.5-28.3z"/>
		<path id="Path 42" class="s7" d="m6859.9 2785.3c-4.7 45.2-15.2 90.3-24.7 134.7-47.7 224.8-143.7 431.8-266 625.2-62.3 98.5-135.8 199.2-223.7 276.5-23.6 20.7-53.4 38.3-80 55-84.9 53.4-169.5 89.9-267.2 112 29.4-48.5 47.9-101.6 70.7-153.2l55.8-127c32.9-86 57.3-176 73.9-266.4 19.7-107.6 28.1-218.2 43.1-326.7l50.8-329.9c21.2-195.6 21.1-392.7 13-588.9-5.1-125.9-11.5-249.8-27.1-374.9l100.5 84.5-1.3 389.5-51.2 786.3c-6.1 115.8-18.1 241.8-4.9 356.9 2.3 19.9 5.4 39.5 19.4 54.9 8.1 9 18.6 14.3 30.9 13.7 66.3-3.3 145.8-78.4 184.2-127.3 89.3-113.8 156-246.5 215.3-377.9 21.9-48.3 42.6-99.4 59.5-149.6 4.5-13.2 10.7-52.7 20.1-61.7 2.5-2.4 5.9-3.8 8.9-5.7z"/>
		<path id="Path 43" class="s0" d="m6267.1 3840.4l6 0.2-0.8 3.8c-62.4 47.5-139.6 82.9-219 78.8l-6.8-1.9c9.1-11.3 43.4-18.1 58.6-23.5 54.4-19.1 106.2-41.6 162-57.4z"/>
		<path id="Path 44" class="s6" d="m1101.4 4039.2c67.7-30.1 145.9-52.3 218-69.7 44.1-10.7 89.5-18.9 132.7-33-41.9 2.3-82.7 11.9-123.9 18.9-186.2 31.5-376.4 84.5-507.3 230.1l-22.7 26.4c53.3-121.2 171.9-201 291.3-247.5 150.7-58.7 311.2-73.1 471.5-74.8 129.1-1.3 257.3 5.1 385.8 16.2 152.4 13.2 307 31.1 456.8 62.6 205 43 410.3 102.8 602.1 187.5 215.8 95.2 420.7 223.7 582.4 397.2 21.8 23.4 58.8 58.5 72 87.4l1.2 4.9c-95.7-101.7-204.6-175.8-321.5-250.8-340.1-218.4-707.6-368.4-1116.4-381.5-278.6-9-544.6 33-808.3 122-164 55.3-323.9 127.5-451.8 247-53.7 50.1-91.3 110.4-125.2 174.9-36.9-61.7-55.4-133.7-61.7-205.2-1.5-16.7-4.7-38.8-0.3-55.1 6.3-23.7 31.7-51 48.7-68.7 57.1-59.8 122.8-114 195.9-153z"/>
		<path id="Path 45" class="s7" d="m1020.7 4075l80.7-35.8 1.7 7.8-5.9 2-3.6 2.7c-7.2 5.4-1.3 1.4-9.9 5.7-7.7 3.8-11.1 8.3-16.9 14.3-5.7 5.8-0.4 0.6-9.1 4.9-7.4 3.7-23.1 22.2-27.3 29.6-5.6 9.8-20 23.1-29.9 27.6l-3.9-3.9c10-9.1 20-18.1 28.6-28.6-13.8 2.6-23.2 18.3-37.5 24.3 10-21.4 41-24 33-50.6z"/>
		<path id="Path 46" class="s6" d="m1258.4 2664.7l-3.1 6.8c-5.5 11.2-14.7 19.6-23.5 28.3l9.5 14.2c13.8-14.7 17.2-17.6 36.9-21.6 6.3-1.2 7.3-4 12.4-7l15.8-5.9 53.5-26.9c8.1-4 17-6.7 25.4-10.6 7.5-3.4 7.9-4.6 15.8-2v3.9c-13.3 10.7-28.6 14.1-43.4 21.7l-41.6 20.6c-9.5 4.8-16.3 11.4-23.6 19 9.8-0.1 13.4 1.6 21.8-4l5.8 5.9-0.9 9.9c19.7 0 32.2-13 48.3-23.8 14.7-9.8 32.4-20.7 49.4-25.6 12.4-3.5 24.9 1.2 35.5-5.9l5.9 5.9c-3.4 3.4-4.4 5.5-9.1 6.7-13 3.2-24.1 7.1-34.1 16.2l1.6 7.3c25.8-9.8 52.2-21 79.1-27.3 171.1-39.8 367.2-3.7 531.9 48.4 57.1 18 114.9 36.8 169.6 61.2l273.4 146.7c38.4 16 76 47.6 110.4 71.3l274.8 203.6c79.6 63.2 159.5 129 225.4 206.9 11.9 14 30.6 32.4 38.2 48.9l0.6 3.3-3.8 13.5c18.3 24.1 40.3 49.1 54.2 76l17.8 34.5-130.6-107.4c-124.8-95.8-260.7-190.3-397.7-267.4-164.3-92.4-338.2-165.7-517.1-224.2-223-64.9-445.1-100.5-677.8-90.5-117.4 5-217.4 16.5-326 62.8-12.7 8.7-26.9 15.2-40.6 22.1-3.4-27.1-5.8-53.3-2.5-80.5 11.2-93.7 91.9-179.1 162.4-235z"/>
		<path id="Path 47" class="s9" d="m1874.6 2822c16.4 2.4 33.4 6.8 49.9 7.7l-10.6 4.8-1.8 8.8 9.9 5.9c8.4 3.8 3.8-0.4 9.6 5.4 5.7 5.7 10.1 11.2 16.9 15.5 14.8 9.2 27.9 22.3 42.6 32.4l-11.7 8.2c-9.3 0.3-19.9 1.1-28.7-2.4-15.2-5.9-50.8-27.5-56.9-42.8-3.2-8.2-5.5-9.3-13-14.3l-11.8-8.5c-6.4-5.1-2.1-3.4-12.1-3.4 2 8.4 3.8 12.6 10.1 18.5l5.7 5.2-4.3 5.3c-8.4-5.1-14.3-12.7-19.3-21.1-4.7-7.7-3.7-9.1-2-17.6 8.6-2.5 12.9-0.9 21.7 0.6z"/>
		<path id="Path 48" class="s7" d="m1904.8 2706.5c83 13.9 173.6 45.7 250.4 80.4 3.6 12.5 5.8 26.1 13.5 36.6l4.1 6c11 15.9 32.3 42.7 48.4 52.3l6-2.6 5.6-1.4c10.8 8.6 23 16.9 31.7 27.6-18.2-7.7-39.5-19.6-59.3-20.1-13.4-11.7-30.1-21.8-42.4-34.2-12.4-12.4-22.4-30.1-32.2-44.7l0.6-1.3c-28.9-8.7-55.8-10.8-85.9-9.8-9.9-6.7-21.7-12.3-32.5-17.3-10.6-5-16.4-9.6-24.9-17.5l-2.9-9.3c-18.2-13.1-35.5-22.5-57-29.3-11.7-3.7-15.6-5.6-23.2-15.4z"/>
		<path id="Path 49" class="s0" d="m1874.6 2822c-168-35.6-331.6-29.1-496.6 17.2l-79 23.8c-21.9 7.7-43.9 18.8-67.2 20.9 6.4-13 54.5-40 69.3-45.5 47.9-17.8 104.1-28 154.4-37.3 160.9-29.6 319.5-38.4 474 26.4l0.3 2.9-5.3-0.7c-16.5-0.9-33.5-5.3-49.9-7.7z"/>
		<path id="Path 50" class="s11" d="m1411.8 2725.6l17.6-13.4c40.3-24.7 93.3-29.6 139.4-33.6 115.3-9.9 224 0.9 336 27.9 7.6 9.8 11.5 11.7 23.2 15.4 21.5 6.8 38.8 16.2 57 29.3l2.9 9.3c-77.3-22.9-161.8-31.3-241.9-37.9l-58.1-3.8c-7.5-0.4-19.7 1-26.3-1.2-4.7-1.5-9.2-8.6-13.9-10.2-5.8-2.1-15.2-1-21.7-2.2-36-6.8-104.8 0.5-140.3 11.2-9.4 2.8-17.5 9.3-27.5 12.2-20.1 6-28.9 6.7-46.4-3z"/>
		<path id="Path 51" class="s13" d="m2470.7 2926.8c38.4 16 76 47.6 110.4 71.3l274.8 203.6c79.6 63.2 159.5 129 225.4 206.9 11.9 14 30.6 32.4 38.2 48.9l0.6 3.3-3.8 13.5-4.2-4.3c-189.9-219.6-450.9-363.5-678.7-539.4z"/>
		<path id="Path 52" class="s0" d="m1416.7 2697.8c25.8-9.8 52.2-21 79.1-27.3 171.1-39.8 367.2-3.7 531.9 48.4 57.1 18 114.9 36.8 169.6 61.2l273.4 146.7-37.3 3.8c-80-60.4-185.4-106.5-278.2-143.7-76.8-34.7-167.4-66.5-250.4-80.4-112-27-220.7-37.8-336-27.9-46.1 4-99.1 8.9-139.4 33.6l-17.6 13.4c-3.7 16.3-57.8 65-74 75.1l-7.8 3.8c18.3-27.9 48-46.8 67.6-75.1-19 10.3-39 20.5-57.1 32.4-17 11.3-34.9 29.4-55.9 31.2v-3.4c41.6-27.9 87-72.1 132.1-91.8z"/>
		<path id="Path 53" class="s7" d="m1258.4 2664.7l-3.1 6.8c-5.5 11.2-14.7 19.6-23.5 28.3l9.5 14.2c13.8-14.7 17.2-17.6 36.9-21.6 6.3-1.2 7.3-4 12.4-7l15.8-5.9 53.5-26.9c8.1-4 17-6.7 25.4-10.6 7.5-3.4 7.9-4.6 15.8-2v3.9c-13.3 10.7-28.6 14.1-43.4 21.7l-41.6 20.6c-9.5 4.8-16.3 11.4-23.6 19 9.8-0.1 13.4 1.6 21.8-4l5.8 5.9-0.9 9.9c19.7 0 32.2-13 48.3-23.8 14.7-9.8 32.4-20.7 49.4-25.6 12.4-3.5 24.9 1.2 35.5-5.9l5.9 5.9c-3.4 3.4-4.4 5.5-9.1 6.7-13 3.2-24.1 7.1-34.1 16.2l1.6 7.3c-45.1 19.7-90.5 63.9-132.1 91.8v3.4c21-1.8 38.9-19.9 55.9-31.2 18.1-11.9 38.1-22.1 57.1-32.4-19.6 28.3-49.3 47.2-67.6 75.1-8.4 5-15.1 10.1-22.4 16.4-4.1 3.5-7.4 6.1-12.7 7.5-30.7 8-68.8 27.2-93 47.4-9.1 7.6-2.6 2.7-10.7 7.5-13 7.8-28.3 23.7-34.8 36.9l-2.7 3.6c-7.5 10-11.7 22.2-14.6 34.3-12.7 8.7-26.9 15.2-40.6 22.1-3.4-27.1-5.8-53.3-2.5-80.5 11.2-93.7 91.9-179.1 162.4-235z"/>
		<path id="Path 54" class="s14" d="m3311.7 5782.4l110.9-22.3c113.1-15.5 243.4 25.8 332.8 95.4 60.2 46.8 133.3 126.9 145.9 204.2-52.9-39.5-102.7-63.8-166.9-78.9l-90-9.6c-46.2 3.3-93.1 5.9-138.3 16.2-174.3 39.9-329 152.2-444.7 285.6-63.9 73.7-120.7 157.4-160.6 246.6-12.5 28-24.2 56.6-34.1 85.6-3.5 10.7-6.8 34.3-13.3 42.3-13.5-22.1-33.1-47.6-41.6-71.7-6.4-13-11.6-25.3-15.6-39.2l-4.2 4.7c6.1 34.7 21.3 63.4 39.4 93.1 4 6.7 17.2 23 18.5 29.9 0.9 5.1-2.9 18.5-3.7 24l-9.9 65.4c-16.8-16.4-29-30.1-40.1-51.1-37.7-65.2-99-150.2-101.5-227-11.2 16.4-10 28.2-8.3 47.5 11.6 41.3 32.3 70.8 50.8 108.6l49.8 97c7.1 12.9 13 27.2 26 35.3 7 4.4 15.5 6.7 23.4 9 3.7 43.8-1 86.7 7 130.3l21.8 85.6c-16.3-3-33.5-6-49.2-11.6-77.4-28-143.4-91.4-177.6-165.6-55.2-119.4-28.5-256.7 15.6-374.9 100.8-270.4 313.8-506.9 576.9-627.3z"/>
		<path id="Path 55" class="s9" d="m3230.9 5809.5l80.8-27.1 3.9 13c-7.3 9.9-30.4 13.1-42.5 16.6-9.2 2.7-17.8 3.8-27 7.1-5.3 1.9-10 2.8-15.5 3.7l-3.3-4.3z"/>
		<path id="Path 56" class="s13" d="m2635.3 6661v-42.7c-6.6-11.8-10.4-16.5-7.5-29.6l8.5-1.3c6.9 6.4 20.2 16.4 23.9 24.7l17 44.8z"/>
		<path id="Path 57" class="s6" d="m2677.2 6656.9l12.4 3.8c18.4 47 50.4 119.4 95.1 147.1 5.2 10.3 21.7 30.7 32 36.6l3.2 1.4 3.7 7.3c4.5 5.4 4 4.5 9.6 5.9 0.5-25.6-2.1-52.9 1.9-78.2l1.3-7.8c3.7 43.8-1 86.7 7 130.3l-6.6 2c-6.7-3.3-10.8-5.8-16.1-11.2l-4.7-4.8c-13.8-11.3-40.4-30.4-49.4-46.1-7.3-12.7 5.2 1.1-7.6-11.5-4-4-6.4-6.3-9.3-11.1-5-8.4-11.6-15.1-17-23.1l-3.6-5.6-10.1-15.5-6.8 0.6-2 9-4.7-1.4c-30.5-45.8-64.9-64.1-70.2-123.6z"/>
		<path id="Path 58" class="s15" d="m2686.4 6523.1c11.6 41.3 32.3 70.8 50.8 108.6l49.8 97c7.1 12.9 13 27.2 26 35.3 7 4.4 15.5 6.7 23.4 9l-1.3 7.8c-4 25.3-1.4 52.6-1.9 78.2-5.6-1.4-5.1-0.5-9.6-5.9l-3.7-7.3-3.2-1.4c-10.3-5.9-26.8-26.3-32-36.6-44.7-27.7-76.7-100.1-95.1-147.1l-20.2-81.9 5.5-3.4c2.3-19.6-1.8-36.6 11.5-52.3z"/>
		<path id="Path 59" class="s0" d="m2689.6 6660.7l-20.2-81.9 5.5-3.4c4.8 25.4 17.1 49.4 27.5 72.9 12.7 28.5 25 58.4 40.6 85.5 13.8 24.1 33.6 47.3 41.7 74-44.7-27.7-76.7-100.1-95.1-147.1z"/>
		<path id="Path 60" class="s9" d="m2842.8 6207.6l10.7 4.2c3.5 2.3 6.3 5.5 9.8 7.8l0.1-7.8c7.9-10 14.3-22.9 25.6-29.2l17.7 15.2c8.2-7.8 9.2-7.9 20.5-9.7l-13.3 24c-3.2 6.3-3.2 10.6-3.2 17.4l-3.3 4.2-12.2 17.5c-3.9 5.9-15.4 19.8-16.1 26.8-38.3 42.1-76.5 85-110.6 130.4-4.7 6.3-8 13.4-11.5 20.4l3.7 5.9 15.8-15.7c-2.1 9-6.1 13.1-10.6 20.9-5.2 9-9.2 34.7-5.4 44.5 1.8 4.7 6.2 6.7 10.1 9.6l13.8-8.7 4.5 15.3c2.8 9.9 6.8 18 11.5 27.1 8.8 16.8 10.8 29.2 11.4 48.1-6.4-13-11.6-25.3-15.6-39.2l-4.2 4.7c6.1 34.7 21.3 63.4 39.4 93.1 4 6.7 17.2 23 18.5 29.9 0.9 5.1-2.9 18.5-3.7 24l-9.9 65.4c-16.8-16.4-29-30.1-40.1-51.1-37.7-65.2-99-150.2-101.5-227 1.2-13 6-24.9 13.9-35.3l2.7-3.6c4.5-9 6.3-10.5 13.8-17.7l-2.5-7.9c-2.6-1.5-4.5-3.9-6.7-6 10-20.5 23.2-60.4 41.2-73.4 31.2-22.5 46.2-54 78.7-74.7l21.5-17.6-1.9-5.4c-10.3 9.3-21.2 15.6-33.5 21.9-18 9.2-23.2 23.7-36.3 37.9-13 14-28 26.7-42.2 39.4 6-14.7 11.4-31.3 20.3-44.5l52.3-76.6c7.7 0.9 12.8 0.7 20-2z"/>
		<path id="Path 61" fill-rule="evenodd" class="s6" d="m2757.1 6331.7c-18 13-31.2 52.9-41.2 73.4 2.2 2.1 4.1 4.5 6.7 6l3.7-4.4c15-11.3 0.4 3 10.5-7l12.1-11.7c31.7-19.3 52.4-49.1 79.4-75.2l-4.4-2.4c0.5-7.1 1.2-3.7-2-10.2-7.1 6.5-14 12.9-22 18.3l-12.3 9.1-5.2 4.4-5.9-3.8 67.1-70.3-7.8-0.9c-32.5 20.7-47.5 52.2-78.7 74.7zm96.4-119.9c3.5 2.3 6.3 5.5 9.8 7.8l0.1-7.8c7.9-10 14.3-22.9 25.6-29.2l17.7 15.2c8.2-7.8 9.2-7.9 20.5-9.7 12.4-14.9 22.2-35.8 34.2-52 35.2-63.5 118.7-97.1 158.9-157.2 4.6-6.8 2.6-4.8 8.1-9.9 4.5-4.1 8.2-8.2 12.1-12.8l-20.6 1c7.9-6.5 18.7-14.4 29.1-15.6 26.6-3 52.8-19.3 77.2-30.2 37.7-16.7 79.4-31 121.1-31.5 18.6-0.2 34.5 5.6 52.6 9l89.3 14.1c13.6-0.4 22.3-0.1 35.2 5 40.5 15.9 90.3 29.3 120 63.2l90 9.6c-11.7-44.9-37.5-72.9-76.4-95.9-56.7-33.6-113.7-48.8-179.7-49.2-23.1-0.1-45.7 4-68.7 4.6-29.4 0.9-60.8-2.2-89.4 5.3l-5.6 1.5c-31.9 7.8-57.7 23.2-87.7 35.4-17.1 6.9-35.3 10-52.2 17.6-14.2 6.3-31.5 0.9-43.8 5.8-5.2 2.1-16.5 15.1-21.4 19.3-12.6 10.9-24.6 18.2-39.1 25.8-19.1 9.9-38.2 27-55.1 40.6l-9-6.8-0.9-18.1c-2.5 10.2-2.2 17.9 1 28l-20.7 23.7-7 5.9 1.8 7.9-4.7 6.3c-9.9-1.2-5-0.2-14.7-2.9-11.8 6.7-24.5 12-31.5 24.2l3.8 13.8c5.6 0.1 2 0.4 10.4-2.6l2.4 6-4 3.1-5.9 4.9-3.5 2.8c-27.4 22.2-33.9 59-55.7 85-10.4 12.4-23.7 22.2-34.3 34.8z"/>
		<path id="Path 62" class="s7" d="m2961.4 6136.1c35.2-63.5 118.7-97.1 158.9-157.2 4.6-6.8 2.6-4.8 8.1-9.9 4.5-4.1 8.2-8.2 12.1-12.8l-20.6 1c7.9-6.5 18.7-14.4 29.1-15.6 26.6-3 52.8-19.3 77.2-30.2 37.7-16.7 79.4-31 121.1-31.5 18.6-0.2 34.5 5.6 52.6 9l89.3 14.1c13.6-0.4 22.3-0.1 35.2 5 40.5 15.9 90.3 29.3 120 63.2-46.2 3.3-93.1 5.9-138.3 16.2-174.3 39.9-329 152.2-444.7 285.6-63.9 73.7-120.7 157.4-160.6 246.6-12.5 28-24.2 56.6-34.1 85.6-3.5 10.7-6.8 34.3-13.3 42.3-13.5-22.1-33.1-47.6-41.6-71.7-0.6-18.9-2.6-31.3-11.4-48.1-4.7-9.1-8.7-17.2-11.5-27.1l-4.5-15.3-13.8 8.7c-3.9-2.9-8.3-4.9-10.1-9.6-3.8-9.8 0.2-35.5 5.4-44.5 4.5-7.8 8.5-11.9 10.6-20.9l-15.8 15.7-3.7-5.9c3.5-7 6.8-14.1 11.5-20.4 34.1-45.4 72.3-88.3 110.6-130.4 0.7-7 12.2-20.9 16.1-26.8l12.2-17.5 3.3-4.2c0-6.8 0-11.1 3.2-17.4l13.3-24c12.4-14.9 22.2-35.8 34.2-52z"/>
		<path id="Path 63" class="s5" d="m2898.7 6299.9c-23.3 36.5-42.5 69-58 109.9-6 15.7-6.7 41.8-16.8 54.2-1.7-32.5 3.1-79.7 19.2-108.5l3.2-5.6c12.6-22.4 28.5-41.1 44.9-60.8z"/>
		<path id="Path 64" class="s11" d="m3202.9 6036.3l2 2.1c-58.6 36.7-117.5 72.7-169.5 118.6-49.8 43.8-91.5 94.7-136.7 142.9l-7.5-10.8c6.2-9.1 11-18.1 15.7-28 69.6-105.3 183.4-173.5 296-224.8z"/>
		<path id="Path 65" class="s7" d="m3196.6 6030.3l6.3 6c-112.6 51.3-226.4 119.5-296 224.8l-4.2-2-4.4 5.5c-5.7 7.1-10 12.1-19.2 13.4 0.7-7 12.2-20.9 16.1-26.8l12.2-17.5 3.3-4.2c0-6.8 0-11.1 3.2-17.4l13.3-24c12.4-14.9 22.2-35.8 34.2-52 29.3-16 56.6-32.7 87.4-45.8 49.3-21.1 99.3-36.2 147.8-60z"/>
		<path id="Path 66" class="s5" d="m2961.4 6136.1c35.2-63.5 118.7-97.1 158.9-157.2 4.6-6.8 2.6-4.8 8.1-9.9 4.5-4.1 8.2-8.2 12.1-12.8l-20.6 1c7.9-6.5 18.7-14.4 29.1-15.6 26.6-3 52.8-19.3 77.2-30.2 37.7-16.7 79.4-31 121.1-31.5 18.6-0.2 34.5 5.6 52.6 9l89.3 14.1-6.2 1.7-64-4.7c-56.6-0.8-146.7 51.9-191.2 85.2 36.3-7.2 109.9-25.8 143.2-7l2.9 3-5.2-0.8c-57.4-7.6-120.2 27.5-172.1 49.9-48.5 23.8-98.5 38.9-147.8 60-30.8 13.1-58.1 29.8-87.4 45.8z"/>
		<path id="Path 67" class="s7" d="m5253.5 1775.1c2.5-12.1 12.1-21.5 15.2-34.8l1-4.1 24.2-126.9c2.8 11.7 5 17.7 13.7 26.6 67.3 68.6 107.9 162.1 142 250.3 44.4 114.6 79.1 241.8 96.6 363.8 15.3 107 19.5 214.1 17.4 322.2l-13.1 299.1-12.9 348.9-14.3 250.2c-5.7 92.9-12.8 192.6-4.1 285.2 3.2 34.1 8.5 68.5 33 94.1 20.7 21.6 44.2 38 75 38.3 55.3 0.5 99.8-41.8 136.1-79.1 100.9-103.6 170.3-236.8 224-369.8 88.4-218.8 141.6-450.2 181-682.2 17.2-101.3 38.1-207.3 37.1-310.2l-2.3-24.5c14.1-47.1 14.7-104 18.2-153l8.9 22c1-9.5 2.7-17.4-2.1-26.1l2.4-17.8 5.3 2-1.7 20.9c-0.6 6.1 1.7 10.8 1.7 16.6l-1 5.9 3 5.9 2.5-27.6c4.2 26.4 2.8 54.9 3.2 81.7l1.1 145.4c-0.2 105.9-2.4 212.1-12 317.6-10.5 114.2-29.5 228.4-49.4 341.3l-38.6 205.2c-31.1 133.3-75.4 262.6-130.9 387.6-30.2 68.1-61.5 134.3-101.8 197.1-46.1 71.6-105.2 146.9-180.8 188.8-55.6 30.8-124.2 47-185.8 60.2-26 5.7-52.2 12.2-79 10.3-66-4.8-124.5-48.2-178.4-82.8l19.9-49.6 46.5 32.8c58.2 33.9 134.6 37.5 198.7 21.6 100.4-24.8 189.7-81.6 260.4-156.6 136.6-144.9 208.5-332.5 257.4-522.1 14-54.1 30.6-114.7 29.1-170.8-35 121.9-68.5 240.9-122.8 356.4-87.5 186.1-206.2 374.1-410 446.2-64.4 22.8-146.2 31.5-209.2-0.6-4.3-2.2-43.6-25.6-44.6-30.1-0.7-3.4 13.1-34.2 15-39.6l43.2-140.4c41.2-151.5 67.6-302.2 84.8-458.3 19.6-177.5 26.2-364.1 15.2-542.7-15.1-247-60.2-491.2-118.6-731.3z"/>
		<path id="Path 68" fill-rule="evenodd" class="s2" d="m5111.5 1218.5c5.1 5.3 8.9 6.9 15.5 9.6 69.1 29.3 113.2 84 140.3 152.3 13.2 33.1 21.1 66.3 26.7 101.4 5.9 37.5 6.6 90.2-0.1 127.5 2.8 11.7 5 17.7 13.7 26.6 67.3 68.6 107.9 162.1 142 250.3 44.4 114.6 79.1 241.8 96.6 363.8 15.3 107 19.5 214.1 17.4 322.2l-13.1 299.1-12.9 348.9-14.3 250.2c-5.7 92.9-12.8 192.6-4.1 285.2 3.2 34.1 8.5 68.5 33 94.1 20.7 21.6 44.2 38 75 38.3 55.3 0.5 99.8-41.8 136.1-79.1 100.9-103.6 170.3-236.8 224-369.8 88.4-218.8 141.6-450.2 181-682.2 17.2-101.3 38.1-207.3 37.1-310.2l-2.3-24.5c-7.2 33.1-22.6 66.5-34 98.5-68.6 192.2-155.9 391.7-276.8 557.4-23.2 31.7-54.9 69.4-90.4 87.3-19.7 9.9-42.1 11.3-63 3.1-28.1-11-45.9-44.4-58.3-70.4-24.4-51.6-35.5-109.5-43.3-165.6-18.7-135.4-8.2-272-9.5-408.3-0.6-66.8-6-134.6-15.3-200.7-24.5-175-77.7-350.8-140.2-515.8-42.2-111.2-90.5-221.5-125.7-335.1-5.9-18.9-12.8-37.6-5.3-57.1l2.1-4.9 5.4-13.5c8.5-16.4 23.4-28.7 41.1-33.8 28.3-8.3 66-2.3 94 5.2 92.3 24.8 160.2 76.8 242 121.2 14.3 7.7 25.8 17.1 38.2 27.5l5-2c-2.5-7.7-1-12.8 0.1-20.6-2.5-32.2-17.4-69.5-26.1-100.9-53-23.6-110.8-39.7-165.4-59.8-94.1-34.5-191.4-78.9-289.3-99.9-59.4-12.7-120-15.7-180.5-19.7zm1266.2 1077.2l-51.2 786.3c-6 115.8-18.1 241.8-4.9 356.8 2.3 20 5.4 39.6 19.4 55 8.1 9 18.6 14.3 30.9 13.7 66.3-3.3 145.8-78.4 184.2-127.3 89.3-113.8 156-246.5 215.4-377.9 21.8-48.3 42.5-99.4 59.5-149.6 4.4-13.2 10.6-52.7 20-61.7 2.6-2.4 6-3.8 9-5.7 7.6-26.3 9.3-57.5 11.9-85 4.1-43.1 7.3-83.9 7.4-127.2 1.9-70.2 0.9-137.8-10.7-207.2-11.3-57.8-28.7-111.2-63.7-159.3-30.2-41.5-76.3-72.6-117.9-101.7-100.3-70.2-208.6-126.9-308-198.8z"/>
		<path id="Path 69" class="s0" d="m6402.1 2051c66.9 138.6 88.2 318.7 90.2 471.4-12-37.1-18-76.9-26.3-115z"/>
		<path id="Path 70" class="s3" d="m6537.4 2090.4l-23.5-40.5 173.7 99c58.8 39.3 101.2 83.9 136.9 145.3 13 22.2 22.6 46.5 35.6 68.5l8.5 3.2c11.6 69.4 12.6 137 10.7 207.2-17.1 7-28.9 26.8-34.2 45.2l-1.8 11.9c-1.6 10.7-5.5 21.4-8.7 31.8-4 23.3-15.5 47-25.4 68.5l-4.8 13.6c-17.7 42.8-62.1 147.4-106.5 165.6-8.3 0.4-14.2-1.1-21.3-5.8-49.9-32.6-60.2-296.5-66.3-362.4l-18.2-159.8c-13.4-97.7-29.9-195.9-54.7-291.3z"/>
		<path id="Path 71" class="s11" d="m6676.1 2313.7c11.7 4 23.3 9.9 35.7 6.7l3.1 4.6 5.1 45.5c3.8 23.6 11.4 89.3-2 108.8-7.2-25-1.2-71.1-20.7-88.9l-5.7-4.9c0.1-7.6 0.8-13.6-2-20.8-3-7.9-1.6-2.2-3.1-12.4-2.1-13.7-5.6-25.7-10.4-38.6z"/>
		<path id="Path 72" class="s16" d="m6590.8 2187.5c11.7 17.7 20.7 26.1 39.6 36 2.7-6.5 2.6-8.9 2.3-15.7l5.6-3.9c1.9 6.6 1.8 3.8 1.6 8.2 0.1 14.4 1.4 27.7 4.9 41.7l1.8 7.3 5.6 21.7c3 8.7 4.1 22.3 7.9 29.6 4.2 8.3 3.9 6.7 3.9 15.8 4.9 7.4 3.9 7.5 4 15.8 4.9 7.4 3.9 7.4 3.9 15.8 5.5 8.2 3.9 13.1 3.9 22.7l-5 0.9-0.9-9.8-9.6 6.5c-7.5 6.1-10.6 9.5-20 13.1-6.7-0.6-11-0.7-16.9-4.3-5.6-3.4-6.7-8.7-8.6-14.6-15.8-47.2-9.6-99.1-22.7-145.9-4-14.5-2.7-26.1-1.3-40.9z"/>
		<path id="Path 73" class="s5" d="m6714.9 2325c56.2 60.7 76.4 120.5 93 199.9 5.4 25.6 12 51.4 12.3 77.8-0.5 17.5-2 34.2 3.2 51.1l11.2 8.2c-4 23.3-15.5 47-25.4 68.5l-5.6-2.6c-19.6-7.6-41.2 7.6-58.8 16.1-8.9-52.1-12.1-102.6-15.7-155.3-2-29.2-1.8-62.3-9.4-90.6-1.9-6.9-2.6-11.4-1.7-18.8 13.4-19.5 5.8-85.2 2-108.8z"/>
		<path id="Path 74" class="s4" d="m6537.4 2090.4l-23.5-40.5 173.7 99c58.8 39.3 101.2 83.9 136.9 145.3 13 22.2 22.6 46.5 35.6 68.5l8.5 3.2c11.6 69.4 12.6 137 10.7 207.2-17.1 7-28.9 26.8-34.2 45.2l-1.8 11.9c-1.6 10.7-5.5 21.4-8.7 31.8l-11.2-8.2c-5.2-16.9-3.7-33.6-3.2-51.1-0.3-26.4-6.9-52.2-12.3-77.8-16.6-79.4-36.8-139.2-93-199.9l-3.1-4.6c-12.4 3.2-24-2.7-35.7-6.7-0.9-19.9-12-50.8-19.6-69.8l-2.6-6.4c-3.5-10.2-7.8-16.6-14-25.4 0.2-4.4 0.3-1.6-1.6-8.2l-5.6 3.9c0.3 6.8 0.4 9.2-2.3 15.7-18.9-9.9-27.9-18.3-39.6-36-15.7-34.6-23.8-71.1-53.4-97.1z"/>
		<path id="Path 75" class="s17" d="m6844.2 2428.8l-19.7-71c-38.3-108.5-114.5-165-207.9-224.2l2-3.7 7.9 4.9c0.8-6.8-0.9-7.9-4-13.8 21.6 6.1 37.2 23 58.4 31l6.7-3.1c58.8 39.3 101.2 83.9 136.9 145.3 13 22.2 22.6 46.5 35.6 68.5l8.5 3.2c11.6 69.4 12.6 137 10.7 207.2-17.1 7-28.9 26.8-34.2 45.2l-1.8 11.9c-1.6 10.7-5.5 21.4-8.7 31.8l-11.2-8.2c-5.2-16.9-3.7-33.6-3.2-51.1 3.7 12.5 5.2 24.9 9.6 37.3l7.8-9.5c0.3-68 13.3-133.2 6.6-201.7z"/>
		<path id="Path 76" class="s18" d="m3208.3 6185.6c122.4-99.8 275-175.4 436.8-159.3 93.6 9.3 200.3 53.9 260.1 128.7 17.2 21.5 27.7 47.9 39.3 72.7-49.5-33-89.5-54.6-148.2-66.4 68.2 36.6 128.1 72.6 178.5 133.3 35.9 43.3 64.7 94.9 96.7 141.3-43.3-7.9-72.2-14.4-116.9-7.5l-7.3 1.1c-27.6 4.3-54.8 14-80 26.1-80.5 52.1-134.9 117.7-177.2 203.2-38.7 116-65 248.9-8.2 364.1 14.2 28.8 32 51.8 54.3 74.6l-74 16.8-92.4-9.9c-29.3-4.1-55.2-15.5-84-3.2-37-8.9-75.2-15.5-101-46-10.8-6-20.2-14.8-29.8-22.5-13.1 3.1-27.8 6.3-39.1 14-10 6.7-47.9 50.1-56.1 49.2-9.3-1.1-30.4-13.2-38.8-18.3l-12.4-8.2-1.6-0.6c-18.2-9.4-30.6-22.3-39.2-40.6-16-17.7-23.9-36.8-31.8-58.8l-4.1-19.4c-23.3-147.6 41.8-320.3 126.8-439.4-11.8-13.1-34.8-38.1-52.7-40.2l-5.2-0.2-11.7-9.6c-7.8-4.6-12.9-12.2-19.9-16l-5.9-2c-33.2-63.9-12.9-128.2 18.2-188.3 10.8-21.1 23.5-40.7 26.4-64.6z"/>
		<path id="Path 77" class="s3" d="m3661.6 6257.8c15-6 31.5-8.2 45.7-14.2 13.4-5.6 34.4-2.6 49-2.3 16.2 9.6 28.9 16.3 42.4 30.1l1.7 9.4-23.3-10.3-6-3.3-10.6 8.4-3.4-2.5c-22.8-15.4-42.1-9.5-67.2-4.4-11.8-0.6-18.6-5-28.3-10.9z"/>
		<path id="Path 78" class="s0" d="m3398.5 6305.5l14.7 2.9 0.6 9.9c-19.9 24.8-37.2 43.5-64.8 59.3-7.8-1.8-11.5-4.9-17.6-10l0.1-17.7c15.5-21.8 43.3-33.5 67-44.4z"/>
		<path id="Path 79" class="s1" d="m3661.6 6257.8c9.7 5.9 16.5 10.3 28.3 10.9-101.2 28.5-181.6 109.6-244.4 190.4-0.8-4-0.5-1.8-0.3-7.6l0.3-4.9-19.1-0.1c36.6-40 68.8-84.7 110.2-120.2l5.6-4.6c19.7-16.9 41.6-33 65.7-43.3 15.9-6.7 33.3-10.6 48.9-18.2z"/>
		<path id="Path 80" class="s4" d="m3605.4 6165.2c25.9-1.7 60.4-6.5 82.8 8.5 7.4 9.8 9.1 14.6 10.7 26.2-14.1 23.6-86.1 42.3-112 50.3-20.7 8.2-45.7 15.1-66.9 5.1-12.1-5.8-17.2-13.5-21.4-25.8 1.6-4.8 3.1-9.5 5.8-13.8 21.7-34.4 64-43.7 101-50.5z"/>
		<path id="Path 81" class="s0" d="m3258.7 6510.6c24.7-29.4 47.2-55.9 79.6-77-24.4 39.6-58.1 73.1-82.7 113.6-72.8 119.9-126.9 300.7-93.5 441.3 3.3 13.6 6.9 25.5 5.7 39.7-16-17.7-23.9-36.8-31.8-58.8l-4.1-19.4c-23.3-147.6 41.8-320.3 126.8-439.4z"/>
		<path id="Path 82" class="s3" d="m3689.9 6268.7c25.1-5.1 44.4-11 67.2 4.4l3.4 2.5c7.1 10 16.4 20.9 20.6 32.5l11.2 8.5 3.8 7.3 24.3-3.9c15.7-2.9 31.3 1 44.2 10.4 15.9 11.6 32.7 29.5 35.8 49.8 4.8 31.5-24.9 48.2-33.1 75.4-80.5 52.1-134.9 117.7-177.2 203.2-13.2 5.8-19.7 18.3-28.1 29.3-20.3 26.3-49 68.2-81.4 80-21.1 7.7-51.3 5.4-71.4-3.8-36.9-16.8-58.4-80.2-70.9-116.7-17.1 17.2-45.5 54.6-70.5 56.2-8.8-10.5-16.5-21.6-19.2-35.3-6.2-31.1 5.6-56.6-16.9-82.2l39.9-82.4c13.7-9.5 28.1-24.6 37-38.6 5.4-8.6 9.7-12.8 17.8-18.8l19.1 0.1-0.3 4.9c-0.2 5.8-0.5 3.6 0.3 7.6 62.8-80.8 143.2-161.9 244.4-190.4z"/>
		<path id="Path 83" class="s11" d="m3569.8 6570.1c20.2-0.2 38.2-0.2 57.9 5.3l-75.7 90-6.4-1c-3.6-35.8 10.5-62.4 24.2-94.3z"/>
		<path id="Path 84" class="s0" d="m3585.8 6515.4c-19.2 15.5-33.2 24.6-57.7 28.7-5.5 0.9-2.8 1.2-8.4-2.8 8.4-24.6 32.8-61.1 51.8-79.2 19-18 29.7-21.1 55.5-20.8l8.6 8.8z"/>
		<path id="Path 85" class="s4" d="m3635.6 6450.1l3.7-0.5c13.8-4.1 28.1-24.4 39.9-33.5 25.3-19.4 81.7-37.6 112.6-22.6 8.2 4 7.2 4.3 11.3 11.3-20.1 42.3-79.8 84.5-115.1 115.7-20.3 18-39 38.1-60.3 54.9-19.7-5.5-37.7-5.5-57.9-5.3l16-54.7z"/>
		<path id="Path 86" class="s4" d="m3689.9 6268.7c25.1-5.1 44.4-11 67.2 4.4l3.4 2.5c7.1 10 16.4 20.9 20.6 32.5-10.1 10.4-19.8 20.5-28.3 32.2-43.2 18.1-87.1 32.9-128.7 54.6-59.7 31.2-115 75.8-164 121.8-29.7 27.9-57.8 66.5-90.2 89.9 10.7-57.8 40.3-101.7 75.6-147.5 62.8-80.8 143.2-161.9 244.4-190.4z"/>
		<path id="Path 87" class="s2" d="m3236.7 6982.6l-3.3-13.1c-13.8-52.7-12.2-101.3-2.9-154.9 14.6-84 48.4-167 89.6-241.2 13.6-24.6 28.1-53 51.5-69.5l-39.9 82.4c22.5 25.6 10.7 51.1 16.9 82.2 2.7 13.7 10.4 24.8 19.2 35.3 25-1.6 53.4-39 70.5-56.2 12.5 36.5 34 99.9 70.9 116.7 20.1 9.2 50.3 11.5 71.4 3.8 32.4-11.8 61.1-53.7 81.4-80 8.4-11 14.9-23.5 28.1-29.3-38.7 116-65 248.9-8.2 364.1 14.2 28.8 32 51.8 54.3 74.6l-74 16.8-92.4-9.9c-29.3-4.1-55.2-15.5-84-3.2-37-8.9-75.2-15.5-101-46-10.8-6-20.2-14.8-29.8-22.5-13.1 3.1-27.8 6.3-39.1 14-10 6.7-47.9 50.1-56.1 49.2-9.3-1.1-30.4-13.2-38.8-18.3l-12.4-8.2c10.3 2.7 20.5 5.1 30.2 9.5l19.6 9.3c15.4-12.3 25-17.1 35.1-34.8l-4.5-1.6-6.3-2.4c-15.7-5.2-21.7-12.2-32.6-24.6-0.7-7.9-1.7-9.8-6.7-16.3-3.4-4.4-5.7-7.1-8.3-12.3-3-6.2-0.6-7.6 1.6-13.6z"/>
		<path id="Path 88" fill-rule="evenodd" class="s0" d="m3444.9 7012.9c1.7 19.5 24.9 41.1 40 51.2l17 9.5c6.6-12.2 11.6-21.3 7.2-35.6-5.6-18.4-16.8-39.6-34-49.2l-14.3-6c-10.2 10.9-17.3 13.9-15.9 30.1zm-60.1 42.3c-1.1-19.2-24.2-42-33.2-59.5-11.9-23.1-20.5-47.9-24-73.7l-0.9-7.7c-5.1-38.3 3.5-73 2.6-111-19 41.9-25.6 83.3-19.2 128.7 5.5 39.1 19.3 70.8 44.9 100.7 9.6 7.7 19 16.5 29.8 22.5z"/>
		<path id="Path 89" class="s0" d="m3236.7 6982.6l-3.3-13.1c-13.8-52.7-12.2-101.3-2.9-154.9 14.6-84 48.4-167 89.6-241.2 13.6-24.6 28.1-53 51.5-69.5l-39.9 82.4c-53 116-114.8 275.5-67.3 402.8 8 21.3 24.8 42.6 28.6 64.5-20.9-18.1-35-31.9-48.2-56.5z"/>
		<path id="Path 90" class="s5" d="m2665 1733c20.6 6.5 41.2 18.6 60.6 28.3l120.9 64.2c209.8 118.6 397.7 270 550.6 456.8l125.1 167.8c-35.3-99-108.7-197-177.2-276.5-112.5-130.4-251.2-235.8-396.8-326.4-143.9-89.6-298.8-166.9-463-211.6-80.4-22-159.1-33.6-242.2-39.8 106.6-28.6 212.6-44.1 323.2-36.2 51.1 3.7 101.9 13.7 152.2 23.4 48.6 9.4 104.1 20 148.9 40.9 5.7 6.8 7.4 7.6 15.8 10.7l-2.2 5.1c-8 2.6-9.3 4.5-17.6 1.8v2.8l175.6 115.6-5.9 11.8c19.3 13.7 44.2 20.2 64.7 32.9 60.4 37.4 116.5 80.2 171.4 125.2 279.2 228.2 493.9 525.1 630.3 857.9 30.8 75 62.2 154.6 78.3 234.1 12.9 63.7 22.6 122.1 24.5 187.4-10.9 4.7-22.8 10.8-34.9 9.1-22.3-3.1-44.9-3.2-67.4-4.2l-48-140.2c-16.2-41.2-100.8-231.3-129-243.5 1.4 23.3 23 52.9 32.8 74.7 21 46.8 42.8 94.9 59.4 143.5l11.9 41.3c5.5 20.9 3.3 41.8 2.3 63.2h-4.7l-2.2-13.8c-0.5 9-0.9 17.6-2.6 26.4l-1.3 6.5c-19.3-5.2-29.9-9.6-42.5-25.3-42.9-53.7-75.1-122.6-111.5-181.3l-157-230.8c-52.2-74.8-104.4-158.2-169.1-222.7-24.8-41.1-62.9-89.4-98-122.1-17-31.1-61.4-64.5-87.7-88.6-92.9-85-186.4-168.7-290.9-239.4-59.4-40.3-122.4-73.8-184-110.4l6-4.5-4-6.6-6.9 1.9-6.9 3-51.6-27c-7.3-3.6-13.7-3.3-20.6-7.9-12.3-8.2-25.6-15.7-39.3-21.4l-6.1 3.1c-11.2-3.2-23.4-5.9-33.7-11.7-28.4-16-80.6-44.3-98.6-71.3l0.6-1.7-3.3-6.2 2-5.6c42.6-22 79.9-37.5 126.3-49.6 10.1-2.6 19.9-1.6 29.6-3.9 18-4.3 34.5-3.9 53.2-4 10.1-6.7 28.1-4.7 40.5-5.2z"/>
		<path id="Path 91" class="s4" d="m3131.1 2148.7c49.9 26.1 96.6 62.8 140.4 98 135.7 109.3 257.2 234.6 358.9 376.3 24.6 34.3 61.3 81.8 65.8 123.9-17.7-2.1-29.4-5.5-42.6-18.1-39.3-37.6-72.7-86.8-107.7-128.6l-205.6-237.7c-65.9-74-147.5-137.2-209.2-213.8z"/>
		<path id="Path 92" class="s19" d="m2683.8 1947.1c57.1 11.7 110.7 24.1 163.9 49 59.4 27.9 114.8 65.1 167.9 103.5 49.9 36.1 99.8 72.9 145.7 114 65.9 59.2 125 125.2 184.4 190.6 104.2 114.9 206.1 234.7 291.9 364.1 38.8 58.7 75.6 120.9 108.2 183.1 34.7 66.2 66.2 132.7 71.1 208.2l1.6 12.6c-19.3-5.2-29.9-9.6-42.5-25.3-42.9-53.7-75.1-122.6-111.5-181.3l-157-230.8c-52.2-74.8-104.4-158.2-169.1-222.7-24.8-41.1-62.9-89.4-98-122.1-17-31.1-61.4-64.5-87.7-88.6-92.9-85-186.4-168.7-290.9-239.4-59.4-40.3-122.4-73.8-184-110.4z"/>
		<path id="Path 93" class="s20" d="m1355.6 5627.3c139.3-340.8 458.6-536.6 783.3-673.4 69.8-29.4 142.2-51.1 215.3-70.6 322.2-85.7 655.9-82 967.3 45.2 181.7 74.1 357.7 216.9 435.6 401.8 9.9 23.7 16.7 48.5 21.6 73.6-20.7-16.1-38.8-34.9-59-51.7-37.7-31.2-78.4-59.8-119.7-85.9-242.8-153.2-540.2-180.4-819.7-145.1-180 22.7-371.1 81-527.1 174-126.4 75.5-241.8 181.7-331.6 298.4-105.8 137.5-192.7 299.6-228 470.7-8 39-8.1 78-14.7 116.9l-3.4-16.4c-8 0.7-10.5 5.4-16.3 10.6-25.4 7.1-49 9.4-75.3 9l-43.3-3.6c-52.7-6.4-101.8-45.6-133.6-86.2-40.7-52.2-99.3-181-88.4-246 3.8-22.5 3.3-45.2 6.5-67.8 3.3-22.2 9.9-43.4 14-65.4l1.3-7c-0.5-6.5-1.5-11.5 1.4-17.6 5.2-10.9 4-22.6 9.4-33.8 3.4-7.2 2.3-3.5 3.8-10l0.7-3.6 3.9-5.8z"/>
		<path id="Path 94" class="s9" d="m1519.3 6069c17.3 0.6 28.1-1.5 42.7 9.1l0.7 9.3-17.5 7.9-0.1 7.9c10.1 8.2 18.7 13.1 29.6 19.8 5.3 3.2 6.9 5.6 13.2 7.7 8.7 3 16.8 6.5 25.2 10.3l1.1 7.6-7.9 1.9-5.9-3.9c-7 0.6-9.4 0.4-15.9-2.8-7.8-3.9-3.2-2.5-10.1-4.2l-3.6-0.9-15.8-9.8c-15.7-7-29.2-25.1-41.4-37.5-0.8-9.5 1.4-14 5.7-22.4z"/>
		<path id="Path 95" class="s7" d="m1710.3 5425.6c-9.8 2.3-19.2 3.8-26.3 11.5-5.9 6.4-2.1 3.9-8.6 7.1 5.4-19.3 15.8-35.6 23.6-53.9l4-9.3c8-12.2 0.6 3.3 5.8-7.8 3.5-7.3 6.2-13.9 10.7-20.8l3.2-4.5c0-6.8 0.8-9.8 3.7-15.8l2.3-4.4c4.1-8.4 8.3-16 13.8-23.7 3.5-4.9 6.6-9 9.7-14.3 4.2-7.2 1.2-4.2 8-8.4 1.2 8.6 1 17.3 1.2 25.9-13.7 39.7-43.1 77.4-51.1 118.4z"/>
		<path id="Path 96" class="s0" d="m1468.7 5697.3c11.2 10 12.3 65.5 16.7 83.2 19.3 77.3 71.9 143.3 94.1 219.8l-5.8-8.1c-56.8-81.2-122.7-192-105-294.9z"/>
		<path id="Path 97" class="s0" d="m1604.5 5480.8c0 23.1-15.9 56.4-22 79.8-22.3 84.8-36.3 162.1-5.9 247.6 8.1 23 20.7 44.2 28.7 67.2l-6.1-2.3c-21.8-22.5-39.3-45.9-50.6-75.3-37.6-97.1 16.4-227.7 55.9-317z"/>
		<path id="Path 98" class="s0" d="m1552.6 5473.9c1.2 14.2-18.1 41.3-24.6 55.5-22 48.7-38.5 97.3-56.2 147.6-15.6 44.3-31.5 84.1-25.2 132.4 11.1 85.3 44.1 149.5 87.4 222.8l-3.1 4.9c-44.4-58.7-80.6-114.3-96.7-187.5-15.1-68.3 6.4-132.1 30.5-195.5 24.3-63.7 51.5-122.5 87.9-180.2z"/>
		<path id="Path 99" class="s0" d="m1340.4 5708.4l0.3 4.2c0.9 19.5-5.4 42.1-8.3 61.6-15.5 104.4 26.9 222 90 304.4 35.2 46.1 88.5 76.8 146.2 83.7 25.5 3.1 69.7-0.3 90.6 13.1-25.4 7.1-49 9.4-75.3 9l-43.3-3.6c-52.7-6.4-101.8-45.6-133.6-86.2-40.7-52.2-99.3-181-88.4-246 3.8-22.5 3.3-45.2 6.5-67.8 3.3-22.2 9.9-43.4 14-65.4z"/>
		<path id="Path 100" class="s11" d="m2329.2 5092.1l8.1 0.4c11.6 0.5 20.7-3.4 31.3-7.8 2.2 9.6 2.3 11.3 9.3 18l-3.5 1.3c-4.3 1.6-8 3.5-12 5.7l1.4 6.4-227.7 162.5 73.1-94.8-57.1 19.7c14.5-16 28.4-32.7 46-45.4 44.9-26.1 82.1-47.8 131.1-66z"/>
		<path id="Path 101" class="s21" d="m2395.2 5020.4c58.2-30.4 129.8-52.7 194.6-61.3l-2.8 15.4-23.8 15.9c-5.5 3.6-9.6 5-15.6 7.2l-6.1 2.5 6 5.9c-6.1 4.1-12.9 8.1-20.3 9.7-28.5 12.5-61.1 24.7-87.1 41.6-25 16.4-47.5 51-76.3 58.8l-1.4-6.4c4-2.2 7.7-4.1 12-5.7l3.5-1.3c-7-6.7-7.1-8.4-9.3-18-10.6 4.4-19.7 8.3-31.3 7.8l-8.1-0.4c-49 18.2-86.2 39.9-131.1 66l-3.9-4.5c29.1-22.7 60.6-42 90.9-63 36.6-25.4 69.8-50.5 110.1-70.2z"/>
		<path id="Path 102" class="s5" d="m2329.2 5092.1l196.4-81.1 1.6 4.7c-28.5 12.5-61.1 24.7-87.1 41.6-25 16.4-47.5 51-76.3 58.8l-1.4-6.4c4-2.2 7.7-4.1 12-5.7l3.5-1.3c-7-6.7-7.1-8.4-9.3-18-10.6 4.4-19.7 8.3-31.3 7.8z"/>
		<path id="Path 103" class="s9" d="m1761.4 5307.2c12.6-15.7 28.2-37.8 50.1-39.3 10.8-0.7 16.3 3.5 23.5 10.5 0.7 19.9-2.2 34.2-8.6 53.1l-1.6 4.8c-5.7 16.7-16.4 32.3-25.5 47.4 20.9-10.3 56-30.4 79.2-20.9l5.1 2.4c0.4 12.2-9.4 25.2-15 36-10.7 20.6-19.5 40.6-27.2 62.5-16 46-33 93.1-43.9 140.7-10.6 46.3-9.3 86.7-29.6 131.3-46-96.7-32.8-189.6-3-289.6 4.3-14.6 15.8-36.4 12.4-50.7-10.2 15.7-12.2 33-18.8 50.4-17.7 46.9-35.7 89.5-48.3 138.4l-10.4 61.4-2.8 13.6-5.8 1.9c-5.1-7.5-3.2-3.2-4.8-9.7-2-7.6-7-11.7-12-17.6-5.3-6.5-6.7-10.1-8.9-18l-1.2-4.4c-2.5-12.4-3.5-40.8 3.2-50.9 0-9.4-1.4-11.6 4-19.7 0-8.4-1.1-8.3 3.9-15.8 0-9.1-0.4-7.5 4-15.8l1.9-7.8 4-11.9 1.8-5.9c3-9 7.6-16.3 10-25.6 2.9-11.3 8.3-21.9 13.2-32.4 8-41 37.4-78.7 51.1-118.4z"/>
		<path id="Path 104" class="s11" d="m2194.2 5153.6c-59.3 42.5-127.1 67.1-186.4 108.4 48.5-50.3 98.4-100.8 154.1-143.1-43.6 14.7-87.9 20.9-127.7 45.1-20.8 12.7-41.7 40-62.8 48.5 4.8-20.9 33.5-42.5 48.6-57.4 24.8-24.5 47.7-52.4 73.9-75.3 26-22.7 55.9-41.5 84.2-61.3l-1.5-3.9c-27.4 14-55 27.8-81.2 44.2l-57.7 39.1c-10.9 8.2-22.5 19.8-35.6 23.9l2-3.8c11.1-13.6 31.2-26.3 45.3-36.6 61.5-44.8 125.7-77.3 196.1-105.7 30.1-12.1 60.3-25.3 91.9-33.2 37.3-9.4 77.8-8 114.3-18.2l5.1-1.5 0.8 4.3c-28.1 5.1-55 17.2-81.4 27.8 79.6-14.1 155.7-34.6 237.5-23.5 36.6 4.9 74.1 8.4 109.5 19-16.9 2.7-35.6-1.3-52.8-1.9-29-1.1-52.7 2.7-80.6 10.6-64.8 8.6-136.4 30.9-194.6 61.3-40.3 19.7-73.5 44.8-110.1 70.2-30.3 21-61.8 40.3-90.9 63z"/>
		<path id="Path 105" class="s3" d="m6203.1 2422.2c-7.2 33.1-22.6 66.5-34 98.5-68.6 192.2-155.9 391.7-276.8 557.4-23.2 31.7-54.9 69.4-90.4 87.3-19.7 9.9-42.1 11.3-63 3.1-28.1-11-45.9-44.4-58.3-70.4-24.4-51.6-35.5-109.5-43.3-165.6-18.7-135.4-8.2-272-9.5-408.3-0.6-66.8-6-134.6-15.3-200.7-24.5-175-77.7-350.8-140.2-515.8-42.2-111.2-90.5-221.5-125.7-335.1-5.9-18.9-12.8-37.6-5.3-57.1l2.1-4.9 5.4-13.5c8.5-16.4 23.4-28.7 41.1-33.8 28.3-8.3 66-2.3 94 5.2 92.3 24.8 160.2 76.8 242 121.2 14.3 7.7 25.8 17.1 38.2 27.5l5-2c-2.5-7.7-1-12.8 0.1-20.6l90.2 393.2-6.9-137-36.1-190.5-17.2-72.6-27.8-86.6c80.9 28.2 161.2 57.4 233.6 104 37.4 24 71.5 54.6 105 83.8 32.6 28.5 66.4 57.1 84.7 97.3 10.4 22.9 11.9 52.3 14.8 77.1 4 33.6 11.5 72.9 9.6 106.4l13.3 209.2 7.9 192.1-2.5 27.6-3-5.9 1-5.9c0-5.8-2.3-10.5-1.7-16.6l1.7-20.9-5.3-2-2.4 17.8c4.8 8.7 3.1 16.6 2.1 26.1l-8.9-22c-3.5 49-4.1 105.9-18.2 153z"/>
		<path id="Path 106" class="s5" d="m5799.2 1487.7c24.3 11.7 50.1 31.5 57.9 59.1 2.2 8 0.5 9.1-2.2 16.1-2.8-2.3-5.1-4.5-8.6-5.8-10.2-4.1-20.2 0-29.9 3.2z"/>
		<path id="Path 107" class="s1" d="m5948.2 1697.6l-34.4-127.8 20.6 12.3c13.1 9.2 26 16.1 40.4 23-8.9 0.1-13.6-0.1-22.2 2.8 4.3 15.1 10 28 17.3 41.9l-2.5 2.6c-4.9 4.2-9.7 4.6-15.8 5.9-2.1 7.4-1.9 10.1-1.5 17.5 0.4 7.9 0.4 14-1.9 21.8z"/>
		<path id="Path 108" class="s8" d="m6232.4 2078.9l7.9 192.1-2.5 27.6-3-5.9 1-5.9c0-5.8-2.3-10.5-1.7-16.6l1.7-20.9-5.3-2-2.4 17.8c4.8 8.7 3.1 16.6 2.1 26.1l-8.9-22-2.3-15.7c-0.3-38.8 0.8-78.2 6.6-116.7 8.2-8.9 5.9-43.9 6.8-57.9z"/>
		<path id="Path 109" fill-rule="evenodd" class="s0" d="m5715.6 2282.8c3.6 13.1 6.9 22.1 18.9 29.4 10.8 6.5 20.9 8.6 33.3 9.5 8.8-11.1 15.3-17.5 14.2-33-0.6-10.1-5.8-20.8-13.9-27.1-11.4-8.9-25-9.3-38.7-9.1-7.9 10.6-12.3 17-13.8 30.3zm138.5 390.7c9.7 12.7 19 20.6 35.4 22.4 10.5 1.2 19.6-0.3 29.6-2.8 6.3-9.8 10.1-15.8 10.8-27.8-4-11.7-10.5-19.9-21.7-25.4-13.1-6.5-31.2-4.4-45.5-3.8-8.9 16.2-9.7 19-8.6 37.4zm-320.9-1101.1c2 14.9 14.1 27 26.3 34.4 8.7 5.2 17 8.1 26.8 10.2 9.6-13.8 16.7-20.8 13.8-38.7-2.3-14.4-16.9-31.8-29.6-38.4-7.1-3.7-15.4-5.4-23.3-6.9-12.6 14.5-16.7 18.9-14 39.4z"/>
		<path id="Path 110" class="s0" d="m5671.2 1785.6c8.9-0.2 17.1 2 25.7 3.9 15.5 12.1 32.3 32.6 33.3 53.3 0.6 12.3-7.1 21.3-14 30.6-13.2-5-25.2-11.2-36.9-19.1-11.9-8.1-20.5-18.6-22.9-33.1-2.4-15 6.3-24.6 14.8-35.6z"/>
		<path id="Path 111" class="s4" d="m5816.4 1560.3c9.7-3.2 19.7-7.3 29.9-3.2 3.5 1.3 5.8 3.5 8.6 5.8 37.8 77.7 53.5 149.6 55.5 236-18.3-17.8-35.5-35.5-57.9-48.1z"/>
		<path id="Path 112" class="s22" d="m5969.9 1649.8c20.8 36.9 53.3 84.9 64 125.2-8.9 22.5-11.3 47.2-11.5 71.2 7.2 40.5 9.5 87.3 5.6 128.2l-15.5 11.1c8.4 57.2 18.8 137.1 0.3 192.5h-4.9l-6.8-14.7-3.5 0.9c-7-22.9-7.6-49-10.2-72.8-7.5-69.1-8.9-134.7-8.5-204l-30.7-189.8c2.3-7.8 2.3-13.9 1.9-21.8-0.4-7.4-0.6-10.1 1.5-17.5 6.1-1.3 10.9-1.7 15.8-5.9z"/>
		<path id="Path 113" class="s4" d="m5995.2 1823.2l-37.5-156.1 5.7-2.6c32.9 32 35.4 106.4 46.4 150.8l-2.6 7.4h-7.4l-1.8 15z"/>
		<path id="Path 114" class="s0" d="m5999.2 1912.4c11.2 20.2 10.5 50.2 13.3 73.1 8.4 57.2 18.8 137.1 0.3 192.5h-4.9l-6.8-14.7c5.3-28.8-2.2-64.1-2.9-93.6z"/>
		<path id="Path 115" class="s11" d="m6009.8 1815.3l8.2 3.8 4.4 27.1c7.2 40.5 9.5 87.3 5.6 128.2l-15.5 11.1c-2.8-22.9-2.1-52.9-13.3-73.1-5-9.7-7.5-23.4-10.1-34.1 5.3-7.1 5.6-11 5.9-19.7-5.7-8.5-4.5-15.1-5-25.1l5.2-10.3 2.8 14.5 1.8-15h7.4z"/>
		<path id="Path 116" class="s4" d="m5969.9 1649.8c-7.3-13.9-13-26.8-17.3-41.9 8.6-2.9 13.3-2.7 22.2-2.8 61.4 22.5 121.7 70.3 159.4 124 9.6 20.6 20.8 41 28.1 62.5 13.9 41.3 18.9 83.5 26.1 126.2 4.9 29 11.5 58 11.8 87.7 0.2 27.6-5.4 55-6.8 82.6-3.1 66.2-2.7 135.7 2.6 201.8 0.2 36.4-14.4 76.3-25.4 110.7-19.1-25.4-35.2-229.7-40.9-275.1-5.8-45.3-12.6-91.4-22.3-136.1-16.1-73.9-40.6-146.4-73.5-214.4-10.7-40.3-43.2-88.3-64-125.2z"/>
		<path id="Path 117" class="s23" d="m5102.4 1614.4c-89.1-235.2-207.8-490.9-418-642.1 43 10.9 89.8 19.7 130.8 36.6 72.7 29.8 139.4 95.6 179 162.5 81.6 138 128.2 305.3 175.1 458.1 52 160.9 88.3 324.2 127 488.5l74.8 318.7c40.8 204.9 67.9 422 59.2 631-2.5 8.1-4 15.9-5.5 24.2l-4 2c-0.9-30.5 7.5-105-7.9-128.3l-3.9 3.9 3.3 8.9-18.7 178.6c-47.9 320.6-150.7 635.9-308.6 919.1-49.7 89.2-103.6 185.3-185.1 249.2-34.9 27.5-84.7 52.4-130.3 47-11.2-1.3-22.6-5.1-33.2-8.9l-45.7-1.4-3.4-159c-30.7-285.1-120.5-553-225.8-817.7-70.1-176.3-147.4-351.9-242.5-516.4l-67.3-109.6c-10.1-15.5-20.3-34.4-34.9-46.1 101 211 208.9 420.5 294.2 638.7 35.3 90.4 61.1 182.9 88.3 275.9l87.9 355.7c28.2 137.1 50.8 267.6 42.9 408.4-3.1 55.8-9.6 112.6-27.4 165.8-49.3 147.8-162 258-299.6 326.6-114.9 57.3-237.9 62.2-359.2 21.8 54.5-159.1 58.6-339.7 6.2-500.6-17.7-54.2-44.7-104.7-62.3-158.3 78.2 108.5 158.1 249.5 291.6 296.3 59.9 21 126.7 20 183.7-8.8 61.3-31.1 98.7-88.5 118.5-152.9 24.2-79.1 29.8-162.3 30.3-244.6 2-303.9-91.3-595.3-193.9-877.6-63.9-175.8-133.8-349.9-220.7-515.9-44.1-84.1-89-169.2-139.5-249.7-100.8-161-216-306.9-343.6-447.3-156.4-172-333.3-327.1-539.3-437.1-94.6-50.5-195.1-87.6-297.3-119.5 39.9-41.3 85.5-76.3 131.9-109.9 4.6 35.1 8.2 46 36.7 67.4l21.7 13.2c51.7 28.7 106.6 51.8 159.5 78.3 54.9 27.5 109 59 161.2 91.2 91.3 56.3 178.5 127.5 260.8 196.1 193.6 161.1 364.8 348.8 494 565.8 74.5 125.1 135.5 259.8 197.8 391.3l76 177.2c24.4 65.1 45.1 133.7 77.7 195.3l141.3 310.8 12.4 25.7 1.6 5.3c5 15.2 18.5 34 26.4 48.5l64.7 120.1c65.1 118.6 118.1 237.7 196.2 349.5 59.6-77 104.5-162.2 153.2-246.1 71-122.4 137.5-245.5 188.2-378 79.9-208.5 114.8-425.2 126.3-647.2 7.8-150.7 5-308.1-14.8-458-30.1-227.3-94-452.4-191.5-660z"/>
		<path id="Path 118" class="s0" d="m4566.8 3961.6l12 34.1c11.7 48.9 14.7 102.4 15.3 152.5 1.7 158.8-35.4 319-117.5 456-59 98.4-147.4 186.1-262.1 213.6-42.3 10.1-82.2 12.7-125.1 3.3l-30.2-12.4c7.7-6.3 30.9-2.2 41.5-2.2 106.1-0.1 203.9-48.6 277-123.3 129.8-132.3 182.8-331.9 191.1-512.8 3.2-69.6-1.5-139.1-2-208.8z"/>
		<path id="Path 119" class="s24" d="m2867.3 1623.9c50.3 10.2 104.3 37.6 151.2 59 359.2 163.3 633.5 482 847.7 804.9 108.6 163.8 197.6 335 280.6 512.9 133.4 285.9 244.2 578.9 292.4 892.3 21 137.2 31.9 285.8 4.5 422.9-11.9 59.7-35.3 124.9-88 160.1-41.6 27.8-92.9 33.8-141.1 23.1-121.2-27-214.5-157.9-286.5-251.8l-110.2-147.3c-141.1-199.4-287.7-397.8-454.3-577-202.8-218.2-442.8-412.3-692.9-574.1l-227-135.9c-46.3-25.1-98-47.1-142.3-75.1l-123.9-60.4 1.1-5.9-5.4-6c43.9-4.2 92.1 15.9 134.4 26.9 254.8 80 500 179.6 723.3 328.4 91.5 60.9 180.5 130.3 262 204l146 141.1c58.2 59.3 115.3 121.1 180.3 173.1 39.7 31.7 79 59.4 130.2 68.6l5.4 1.1c40.5 7.2 85.6-9.1 117.6-33.6 76.8-58.7 116.4-180.2 126.4-272.6l3.4-93.4c-1.9-65.3-11.6-123.7-24.5-187.4-16.1-79.5-47.5-159.1-78.3-234.1-136.4-332.8-351.1-629.7-630.3-857.9-54.9-45-111-87.8-171.4-125.2-20.5-12.7-45.4-19.2-64.7-32.9l5.9-11.8-175.6-115.6v-2.8c8.3 2.7 9.6 0.8 17.6-1.8l2.2-5.1c-8.4-3.1-10.1-3.9-15.8-10.7z"/>
		<path id="Path 120" class="s2" d="m1807.1 5857.5l76.7-141.1c127.3-200.3 313.9-373.7 534.5-465.1 68.9-28.5 143.1-47.1 215.8-63.1 228.7-50.2 479.5-53.3 704.8 17.1 106.2 33.2 205.9 83.2 299.3 143.1l-3.5 79.9-12.7 10c-52.1-30.4-103.8-58.9-162.8-73.5 40.9 27.7 84.5 51.6 124.4 80.7 146.6 106.6 245.4 247.2 281.3 426.3l2.2 12.8c-19-22.1-38.1-45.3-60.4-64.1-79.2-66.7-186.4-107.5-289.1-115.1l-108.6 1.3c-288.2 54-511.1 248-672.7 483.9l-83.3 143.5c-43.7 88.6-76.1 174.4-90.4 272.6-36.8 13.7-65.2 41.7-103.9 54.5l-5.7 1.9-10.9 3.2c-14.3 3.9-20.7 8.6-30.5 19.6-21.9-88.5-12.5-168.2-4.6-257.4-43.8 93.7-48.7 207.9-37.9 309.1l-1.5-0.7c-23.7-14.2-32.2-17.2-60.6-13.1-8.4-71.9-9.2-145.7-7-218l3.2-76.8c0.2-3.3 2-17.5 1-19.9-1-2.4-3.4-4-5.1-5.9l-4 3.9c-23.7 143.9-25.5 283.1 17.9 424.1-115.2-52.5-216.3-145.7-312.3-226.9-2.4-166.2 4.1-341.2 53.4-501.2 23.4-75.8 55.8-147.3 82.1-221.9-65.7 91.7-105.3 196.2-130.7 305.7-7 30.2-10.4 61.5-18.1 91.5l-1.4 5.6c-1.2 35.9-7.9 72.1-10.1 108.1-3.9 64.7-0.3 127.4 4.2 192l-135.7-140.4c-41.5-45-86-91.7-107.9-150-12.4-32.9-12.2-67.3-12.2-101.8 0.3-118.6 33.7-227.1 82.8-334.4z"/>
		<path id="Path 121" class="s0" d="m2220.4 6214.7c3.2 35.6-14.5 83.6-19.7 120.2-5.6 38.7-8 78.4-9.4 117.5l-0.3 116.7c1.5 38.8 14.3 97 5.3 133.4l-6.9-3.7c-26-123.6-33.4-252.1-6.7-376.5 7.7-36.2 18.2-75.9 37.7-107.6z"/>
		<path id="Path 122" class="s0" d="m2157.3 6078.7l-35.4 174c-22.9 133.8-20.9 270.8-3.8 405l-5 1.3c-13.7-39.6-19.2-82.9-23.7-124.4-16.7-153.6 0.3-315.9 67.9-455.9z"/>
		<path id="Path 123" class="s5" d="m2561.1 5437l-1.7-5.2c-39-16.9-75.6-24.1-116.4-7.8-21.6 8.6-46.1 21.9-69.1 25.5-13.3 2.1-18-0.5-28.6-8.1-1.1-6.3-1.7-11.1 0-17.5 12.9-47 68.9-84.4 109.7-106.7 205-112.4 440.6-126.5 662.9-59.7 35.2 10.5 72.6 26.3 90.9 60.3-5.1 9.1-7.9 10.1-16.3 15.8-1.1 11-1.5 21.1-9 29.9l-5 5.4-98.6-20.3c-42.8-6.4-89.2-3-132.5-2.6-38 0.3-78.2-2-115.7 3.4-15.8 2.3-31.4 0.8-47.3 4-36.8 7.4-70.8 15.4-105.3 30.7l-13 5.1c-25.6 8.7-51.1 24.3-75.3 36.5-5.3 2.6-8.3 3.1-13.6 4.7-5.4 1.6-11.4 3.3-16.1 6.6z"/>
		<path id="Path 124" class="s1" d="m2869.1 5262.2c108.7-6.9 226.2 12.9 322 65-17.2 3.1-40-1.4-57.6-2.7l-132.6-8.3-107.3-0.4-189.6 25.2c-30.1 4.6-77.1 17-102.6-1.8l0.6-5.6c61.5-27.1 118.5-47.6 184.4-62.2 27.4-6 54.7-7.4 82.7-9.2z"/>
		<path id="Path 125" class="s5" d="m1955.8 5918.1c38.2-70.7 78.1-130.9 139.3-184.5l12.7-10.8c-11.8 29.3-41.6 56.1-60.1 82.3-42.5 60.2-78.7 139.9-98.5 210.8 6.4-6.3 12.1-11.3 16.5-19.3l16.5 1.1c4.7 60.8-10.7 121.7-13.5 182.5-1.1 24.1-2.7 49.4-0.4 73.4 1.9 20 7.4 38.5 8 58.8-0.3-7.5-0.3-8.7 3-15.8l2.4-5.5c2.5-5.8 1-3.8 4.3-7.1-1.2 35.9-7.9 72.1-10.1 108.1-3.9 64.7-0.3 127.4 4.2 192l-135.7-140.4c-41.5-45-86-91.7-107.9-150-12.4-32.9-12.2-67.3-12.2-101.8 0.3-118.6 33.7-227.1 82.8-334.4 18.6 3.8 28.7 4 39.7 20.9 12.1 18.5 10.9 64.3 14.1 87.3l44.1-63.3c8.5-11.2 19.8-20 27.8-31.5 10-14.3 16.1-30.9 28.6-43.3l3.2 3.3c-2.6 7.5-5.4 12.6-10.1 19l5.1 4.7c0 10.5-2.1 18.6 3.9 27.6-2.2 7.7-5.7 14-7.9 21.7l-3.9 4-2 4.9c3.5 4.5 1.4 2.8 6.1 5.3z"/>
		<path id="Path 126" class="s0" d="m1955.8 5918.1c38.2-70.7 78.1-130.9 139.3-184.5l12.7-10.8c-11.8 29.3-41.6 56.1-60.1 82.3-42.5 60.2-78.7 139.9-98.5 210.8-19.7 52-38.8 104.4-53.2 158.2l-22.7 100c-5.7-26.8 0.7-58.5 5-85.3 15-94.3 41-182.5 77.5-270.7z"/>
		<path id="Path 127" class="s25" d="m2561.1 5437c4.7-3.3 10.7-5 16.1-6.6 5.3-1.6 8.3-2.1 13.6-4.7 24.2-12.2 49.7-27.8 75.3-36.5l13-5.1c34.5-15.3 68.5-23.3 105.3-30.7 15.9-3.2 31.5-1.7 47.3-4 37.5-5.4 77.7-3.1 115.7-3.4 43.3-0.4 89.7-3.8 132.5 2.6l98.6 20.3c103 19.6 194 76.2 275.9 139.3 25.5 19.8 55.7 40.5 74.1 67.5 7.1 10.4 13.3 22.2 11.3 35.2-3.3 20.7-22.3 33.2-38.7 43.5-28.4 17.9-67.9 29.8-92.1 52.3-288.2 54-511.1 248-672.7 483.9l-83.3 143.5c-25-0.7-41.2 8-64.3 15.1-40.3 12.5-90.7 4.6-127.1-15.7l-6.8-4.1c-45.1-26.7-80.3-65-110.1-107.7-72.4-103.6-110-235.6-110.9-361.2-0.2-25.5-1.6-52.4 3.1-77.5 9.7-51.9 28.4-94.7 51.2-141.9l-52.3 5c-12.9-6.4-13.2-8.2-19.8-20.3 0.7-7.4 1.2-13.7 5.3-20.1 30.2-47.3 110.3-72.4 159.8-95.1 58.8-26.8 117.4-56.7 180-73.6z"/>
		<path id="Path 128" fill-rule="evenodd" class="s0" d="m2658 5806.7l-2.9 3.2c1.7 14.1 3.5 21.2 14.8 30.3 20.8-2.2 44-4 58.7-21.1 6.8-8 7.7-13.8 7.1-23.7l-16-11.6c-23.4 3.7-41.4 10.9-61.7 22.9zm238.9-120c36.2-16.5 67.9-43.8 82.5-81-39 4.7-85.2 44.5-108.7 75.8l-5.2 8.6c12.7 4.9 18.7 2.3 31.4-3.4zm-458.4-141.9c-8.3 11-10.1 16.5-9.7 30 11.4 7.5 19.5 5.7 33 6.1 25.1-7.2 77.9-26.6 92.2-49.3 4.2-6.8 5.4-12.7 6.6-20.4-10.9-10.5-15.7-9.9-30.3-12.7-36.2 6.3-68.4 15.3-91.8 46.3z"/>
		<path id="Path 129" class="s0" d="m2642 5609.5c37.4-25.8 73.2-49.7 115.4-67.4l-80 68.6c-56.9 51-112.8 107.2-160.3 167.1-25.4 32.1-49 65.4-70.7 100.1-14.5 23.3-27.9 53.3-46.8 72.8l-7.5-1.4c-7.5-34.4 40.1-109.8 59.1-139.1 51.4-79.6 118.3-140.9 190.8-200.7z"/>
		<path id="Path 130" class="s1" d="m2658 5806.7l5.1-13.8c29.4-22.2 50.8-53.6 78.6-77.9 83.8-73.1 189-132.3 292.3-173.2l8.6 10.9c-12.5 21.1-45.3 35.4-63.2 53-39 4.7-85.2 44.5-108.7 75.8l-5.2 8.6c-13.4 10.8-32.1 15.9-47.7 23.4-32.7 15.7-76.8 40.8-98.1 70.3-23.4 3.7-41.4 10.9-61.7 22.9z"/>
		<path id="Path 131" class="s4" d="m2551.6 5596.7l10.1-30.2c12.6-29.1 42.1-52.1 70.6-64.1 76.8-32.1 153.1-69.6 236.9-79 62.4-7 122 1 183.3 11.1l-2 10.1-6.5 2.9c-48.9-3.2-130.9 17.4-174.6 39.3l-81.8 32.8c-5.4 4.9-12.8 13.6-19 16.9-5.8 3.2-6.7-1.3-11.2 5.6-42.2 17.7-78 41.6-115.4 67.4-30.4-3.4-60.8 1.3-90.5-6.6z"/>
		<path id="Path 132" class="s1" d="m2551.6 5596.7c12.1 4.6 38.5-16.1 50.3-22.3 58.6-31.1 118.4-55.4 185.7-54.8-5.4 4.9-12.8 13.6-19 16.9-5.8 3.2-6.7-1.3-11.2 5.6-42.2 17.7-78 41.6-115.4 67.4-30.4-3.4-60.8 1.3-90.5-6.6z"/>
		<path id="Path 133" class="s4" d="m3052.5 5434.5c25.3 2.4 54.9 4 79.1 11.9 36.7 3.7 73.6 14.6 108.9 25.1-71.4 11.8-139.8 43.2-206.5 70.3-103.3 40.9-208.5 100.1-292.3 173.2-27.8 24.3-49.2 55.7-78.6 77.9l-5.1 13.8-2.9 3.2c-30.9 10.9-68 52.4-93.4 74.3 0.5-27.2 3.4-52.6 12.8-78.3 13.1-36.1 39.1-71.5 63.7-100.6 72.7-85.7 167.1-150.3 269.4-195.4 26.2-8.9 52.5-17.5 79.4-24 28.4-6.9 55-11 81.1-24.9-7.2-8.7-13.5-10.1-24.1-13.5l6.5-2.9z"/>
		<path id="Path 134" class="s3" d="m1830.5 1860.1c8.7-16.9 27.4-34.2 40.5-47.6 43.4-44.2 92.2-82.3 144.5-115.3 40.3-25.4 82.7-46 129-57.9 101.6-26.1 220.2-3.1 320.3 19.2 67.5 21 137.3 41.9 200.2 74.5-12.4 0.5-30.4-1.5-40.5 5.2-18.7 0.1-35.2-0.3-53.2 4-9.7 2.3-19.5 1.3-29.6 3.9-46.4 12.1-83.7 27.6-126.3 49.6l-2 5.6 3.3 6.2-0.6 1.7c18 27 70.2 55.3 98.6 71.3 10.3 5.8 22.5 8.5 33.7 11.7l6.1-3.1c13.7 5.7 27 13.2 39.3 21.4 6.9 4.6 13.3 4.3 20.6 7.9l51.6 27 6.9-3 6.9-1.9 4 6.6-6 4.5c61.6 36.6 124.6 70.1 184 110.4 104.5 70.7 198 154.4 290.9 239.4 26.3 24.1 70.7 57.5 87.7 88.6 35.1 32.7 73.2 81 98 122.1 64.7 64.5 116.9 147.9 169.1 222.7l157 230.8c36.4 58.7 68.6 127.6 111.5 181.3 12.6 15.7 23.2 20.1 42.5 25.3l1.3-6.5c1.7-8.8 2.1-17.4 2.6-26.4l2.2 13.8h4.7c1-21.4 3.2-42.3-2.3-63.2l-11.9-41.3c-16.6-48.6-38.4-96.7-59.4-143.5-9.8-21.8-31.4-51.4-32.8-74.7 28.2 12.2 112.8 202.3 129 243.5l48 140.2c22.5 1 45.1 1.1 67.4 4.2 12.1 1.7 24-4.4 34.9-9.1l-3.4 93.4c-10 92.4-49.6 213.9-126.4 272.6-32 24.5-77.1 40.8-117.6 33.6l-5.4-1.1c-51.2-9.2-90.5-36.9-130.2-68.6-65-52-122.1-113.8-180.3-173.1l-146-141.1c-81.5-73.7-170.5-143.1-262-204-223.3-148.8-468.5-248.4-723.3-328.4-42.3-11-90.5-31.1-134.4-26.9l5.4 6-1.1 5.9c-37.3-11.7-73.7-30.2-110.4-44.2-179.7-68.6-394.1-159-589.6-132.8-123.4 16.6-230.4 51.7-321.7 139.4l0.2-3.8c2.2-11.8 9.7-26.1 14.1-37.4 14.1-35.2 30.4-68.8 49.6-101.5 151.8-258.8 381.5-450.7 610.8-637.1z"/>
		<path id="Path 135" class="s0" d="m3228.9 2391.6l11.5-1.6c35.1 32.7 73.2 81 98 122.1-17.2-11.1-31.8-29.9-46.3-44.8l-65.1-62.1z"/>
		<path id="Path 136" class="s5" d="m3178.5 2686.8l9.2 6.6c34.3 26.8 62.3 61.2 93.7 91.2 9 8.6 35.1 28 39.7 38.1 2 4.3 2 14.3 2.7 19.3-22.2-10.3-41.7-39.9-58.2-58-29-31.8-61.5-62.6-87.1-97.2z"/>
		<path id="Path 137" fill-rule="evenodd" class="s0" d="m3340.9 3056c17.5 14.9 32.4 26.1 55.3 31-17-41.3-61.9-72-86.7-109.8l-12.2-4.7c2.7 37.4 14.9 58.9 43.6 83.5zm-320.9-554.1c8.4 25.1 44.5 58.9 68.7 68.8 9.6 3.9 22.3 3 32.6 2.7 3.5-5.6 10-12.2 8.4-19-7.5-30.8-54.1-68-81.3-81.6-7.5-3.8-15.1-6.3-23.1-8.8-6 14.1-10.5 22.3-5.3 37.9zm-472.4-226.2c69.9 2.9 118.1 33.1 165.2 83.7l15.4 17.4c-43.1-18.1-82.3-40.4-128.3-51.1l29.3 31c25 20.1 67.7 50.8 101.9 43.5 4.8-1 5.3-1.7 8.8-4 6.4-13.3 8.1-24.2 2.3-38.4-13.7-33.8-80.9-70.3-114.8-82.3-23.8-8.4-54.2-11.7-79.3-9.2z"/>
		<path id="Path 138" fill-rule="evenodd" class="s0" d="m3548.8 3010.5c-19.7-51-47.7-94-78.6-138.9-48.3-70.1-94.7-128.8-167.1-176.5 55.5 116 159.5 220.9 245.7 315.4zm-1789.8-901.1c125-10.7 269.1 3.9 386.9 47.3 66.3 28.9 124.9 63.5 184.6 104.4l-0.9-4.7c-60.4-53.9-128.6-94.5-202.5-127-48.6-21.1-97-32.8-149-41.6-93.8-11.2-223.7-12.1-308.1 37.1z"/>
		<path id="Path 139" class="s2" d="m1503 2399.7l-5.3 0.8c-12.9 2.9-26.2 6.8-39.6 3.5-6.8-1.7-12.5-2.4-19.5-3-8.1-7.7-15.8-13-15.9-24.9l0.1-4.5-3.4-5.9c-0.5-16.9 3.1-22.4 9.3-37.5 4.7-11.3 14.1-19.8 23.4-27.9 23.9-21.3 48.5-39.7 77.4-54.1l5.8-2.8 11.8-5.9c14.2-4.2-0.2 2.9 13.2-4.3 10.3-5.5 19.3-8.8 30.2-12.5l7.9-3 7.9-1c7.1-5.3 15.3-6.2 23.7-8.8 7.3-2.3 14-4.8 21.7-6 7.4-1.1 9.2-1 15.4-6l4.3-3.8 0.7 9.2-3.1 2.4c-15.9 10.3-42.9 14.1-61.3 19.9-37.7 11.9-79.3 29.1-111.8 51.6 50.6-10.8 99.5-32.8 151-39.9-0.8 5.3-1.1 9.8-4.2 14.4-12.5 18-33 34.5-48 50.9-28.6 31.3-52.2 67.7-85.7 94.5z"/>
		<path id="Path 140" class="s26" d="m2317.9 1863.5l38.1 14.7-34.3 6-194.6 245.2c-48.6-21.1-97-32.8-149-41.6 1.7-51.1 61.1-69.5 72.5-116.5 37.8 6.7 93.2 24.8 131 20.2l6.8-6.9c38.7-30.2 66.4-90.7 111-110.1 5.1-2.2 8.1-3.6 12.7-6.9z"/>
		<path id="Path 141" class="s2" d="m1782.2 1976c21.6-8 51.8-8.2 74.6-9.7 65.4-4.1 128.8-2.7 193.8 5-11.4 47-70.8 65.4-72.5 116.5-93.8-11.2-223.7-12.1-308.1 37.1-6.7 4.7-12.4 6.8-20.4 8.6-9.5 2.2-13 4.7-21.5-0.6 5.2-3 9.6-5.5 15.5-7.1l4.1-0.8c0-2.7-0.6-5.4 0-7.9 2.2-9.2 32.3-27.1 40.8-32.7 28.7-19 54.6-41.1 82.3-61.4 12.3-9 32.3-17.9 38-32.2z"/>
		<path id="Path 142" class="s1" d="m2548.4 1892.2l6.1-3.1c13.7 5.7 27 13.2 39.3 21.4 6.9 4.6 13.3 4.3 20.6 7.9l51.6 27 6.9-3 6.9-1.9 4 6.6-6 4.5c61.6 36.6 124.6 70.1 184 110.4 104.5 70.7 198 154.4 290.9 239.4 26.3 24.1 70.7 57.5 87.7 88.6l-11.5 1.6-6.2-0.1c-8.2-0.2-4.5 1-11.6-3.6-25.6-16.4-49.2-38.5-73.5-57.1l-190.3-139.7c-89.4-59.1-190.1-100.9-277.5-162.4-18.3-12.8-42.9-33.3-46.8-55.7 5.8-11 11.8-15 22-21.4l3.8-2.3c-2.4-13.2-83.6-40.9-100.4-57.1z"/>
		<path id="Path 143" class="s7" d="m1965.9 1833.7c30.5-9 65.9-10.5 97.5-11.1 88.9-1.5 170.3 12.7 254.5 40.9l-5.8 4.1c-4.6 3.3-7.6 4.7-12.7 6.9-44.6 19.4-72.3 79.9-111 110.1l-6.8 6.9c-37.8 4.6-93.2-13.5-131-20.2-65-7.7-128.4-9.1-193.8-5-22.8 1.5-53 1.7-74.6 9.7-9.2 0.6-14.1 1.4-23.1-1l63.6-20.2c13.1-16.6 35.7-19.8 55-26.5l76.2-29.9c14.6-6.3 23.7-16.5 37.3-23.3 12.3-6.2 22.7-12 33.5-20.5 2.9-8.6 0.8-13.2-2-21.7-15.3 0.1-28.5 1.5-43.4 5.4l-6 1.6z"/>
		<path id="Path 144" class="s0" d="m1822.7 1954.8c96.7-17.8 192.3-28.9 288.2 0.8 19 5.8 44 13.5 60.1 25.2 4.1 3 7.4 6.8 10.6 10.7-37.8 4.6-93.2-13.5-131-20.2-65-7.7-128.4-9.1-193.8-5-22.8 1.5-53 1.7-74.6 9.7-9.2 0.6-14.1 1.4-23.1-1z"/>
		<path id="Path 145" class="s5" d="m1830.5 1860.1c8.7-16.9 27.4-34.2 40.5-47.6 43.4-44.2 92.2-82.3 144.5-115.3 40.3-25.4 82.7-46 129-57.9 101.6-26.1 220.2-3.1 320.3 19.2l-3.7 3.3c-24 21.4-95.1 44.4-102.4 72.4 8.3 28 28.7 43.3 49.3 62.7-15.8 14.9-30.6 27.9-40.1 47.8l2.1 8.4 5.4 4.5c5.3 4.2 7.9 6.1 14 7.9l-1.5 6.4 101 62.6c-44.1-13.7-90.3-37.7-132.9-56.3l-38.1-14.7c-84.2-28.2-165.6-42.4-254.5-40.9-31.6 0.6-67 2.1-97.5 11.1-26.6 2.8-52.4 7.9-78.1 15.4-16.5 4.7-37 16.5-53.8 16.3z"/>
		<path id="Path 146" class="s0" d="m1834 1865.4c46-46 199.9-63.8 264.4-64.2 75.7-0.4 151.3 14.3 221.8 41.6 21.6 8.4 45.8 23.6 67.7 29.1l101 62.6c-44.1-13.7-90.3-37.7-132.9-56.3l-38.1-14.7c-84.2-28.2-165.6-42.4-254.5-40.9-31.6 0.6-67 2.1-97.5 11.1-26.6 2.8-52.4 7.9-78.1 15.4-16.5 4.7-37 16.5-53.8 16.3z"/>
		<path id="Path 147" class="s26" d="m1759 2109.4c125-10.7 269.1 3.9 386.9 47.3l-64.8 128.9c-29.4 61.7-59.2 157.6-122.3 192.1-77.1-11.5-148.2-41.9-222-65.6-12.4 3.2-30.8 0-43.7-0.9l-105.7-9.9c-28-2.3-56.4-1.7-84.4-1.6l6-4.6c33.5-26.8 57.1-63.2 85.7-94.5 15-16.4 35.5-32.9 48-50.9 3.1-4.6 3.4-9.1 4.2-14.4-51.5 7.1-100.4 29.1-151 39.9 32.5-22.5 74.1-39.7 111.8-51.6 18.4-5.8 45.4-9.6 61.3-19.9l3.1-2.4 20.9 0.8c-3.1-7.6-4.9-13.7-5.8-21.9 24.3-27.1 53.1-22.4 79.7-42.7 8.8-6.7 13.5-14.4 15.5-24.9z"/>
		<path id="Path 148" class="s0" d="m1693 2202.1c70.1-31.2 227.7-11.5 297.7 16.3 14.9 5.9 29.3 14.1 43 22.4-43.3 3-86.8-4.7-129.8-9.6-82.8-9.6-175.5-16.3-257 4.1-51.5 7.1-100.4 29.1-151 39.9 32.5-22.5 74.1-39.7 111.8-51.6 18.4-5.8 45.4-9.6 61.3-19.9l3.1-2.4z"/>
		<path id="Path 149" class="s2" d="m1646.9 2235.3c81.5-20.4 174.2-13.7 257-4.1-12.9 4.3-15.9 7-26 16.1l-9 6.7c-51.9 38.3-94.9 105.5-132.1 158.1-12.4 3.2-30.8 0-43.7-0.9l-105.7-9.9c-28-2.3-56.4-1.7-84.4-1.6l6-4.6c33.5-26.8 57.1-63.2 85.7-94.5 15-16.4 35.5-32.9 48-50.9 3.1-4.6 3.4-9.1 4.2-14.4z"/>
		<path id="Path 150" class="s27" d="m3217.1 4198.7c-115.7-59.9-234.6-118.2-356.4-164.9-139.3-53.5-285.2-92.9-430.2-127.6-139.7-33.4-282.7-63.6-425.6-80.4-277.6-32.5-574-31.6-844.3 45.6-105.4 30.1-211.8 73.5-298.2 142.4-96.7 77.1-186.1 183.6-229 300.8-18.2 49.9-27.2 101.8-32.9 154.3l-19-167c-2.9-55.4 4.7-114.5 13.9-169.1 29.1-171.7 97.3-329.1 179.1-481.5 37.4-69.7 79.8-135.1 112.3-207.5l61.6-137.2c31.9-76.8 52-165.4 109.3-228.1 97.7-107.1 234.4-125.4 371.9-132.2 240.7-11.8 475.1 28.6 705.6 95.8 234.8 68.4 459.4 165.4 667.9 293.5 98.6 60.5 197.6 127.6 283.3 205.5l1.9 7.8c4.7 16.3 20.3 28.9 30.8 41.8l47.3 61.3c59.1 79.9 116.3 166.9 162.7 254.9l36.4 68.5c17.8 35.7 34.6 75.2 47.1 113l13.8 40.4c10.4 27.9 16.7 57.8 22.9 86.9 4 18.8 8.9 67-0.9 83.9-2.9 5.1-3.1 4.8-6.9 8.2-60.2-34.3-152-118.5-224.4-109.1z"/>
		<path id="Path 151" fill-rule="evenodd" class="s0" d="m1594.4 3277.4c1.2 6.2 0.4 9.5 5.7 13.6 17.9 13.5 48.6 12.6 69.8 10.1 8.8-4.7 18.7-8.3 23.3-17.8-2.3-9.2-5.4-16.4-13.9-21.8-16.8-10.7-44.6-7.9-63.5-5-9.1 6-17.4 10.1-21.4 20.9zm640.7-7.9c1.9 11.9 7.1 21.5 16.6 29.1 17.8 14.1 52.8 16 74.9 19.2 12.1-4.7 12.2-9.2 18.1-20.5-28.8-27.6-64.9-35.9-102.2-45.5-4.5 6.8-8.7 9.2-7.4 17.7zm-223.4 209.2c8.9 12.4 17.6 16.7 33.3 18.6 22.9 2.9 45.4-1.9 67.5-7.4 10.5-8.8 15.8-14.3 20.8-27.2-16.9-14.7-66.6-11.3-88.8-10.1l-14.1 1.4c-12.8 9.2-15.8 8.6-18.7 24.7zm266.3 102.6c1 10.7 0.2 13.1 9.2 20 26.2 20.3 69.7 35.2 101.5 45.1l17.1-1.7 2.5-8.2c-16.4-28.4-52.9-59-83.7-68.9l-19.6-4c-12.1 4.4-18.9 7-27 17.7zm-1237.3-325.8l79.1-32.5c42.5-15.9 85.1-31.8 129.3-42.1 33.3-7.7 68.2-10.4 100.6-21.6-32.1-3.4-67.4-6.6-99.4-1.1-71.9 12.3-155.8 46.7-209.6 97.3z"/>
		<path id="Path 152" class="s0" d="m1998.2 3296.6l-15-9.6c-8.4-7.7-8.6-14.8-9.5-25.4 3-4.1 3.5-5.3 8-8.8 11.9-9.4 32.3-9.2 46.4-8 25.2 2.2 44.5 3.6 61.7 23.9l-2.6 11.6 0.1 8.9c14.7-1.2 24.1-5.5 35.9 4-1.8 8.4-4.1 15.5-7.6 23.5-37.1 1.8-81.4-11.5-117.4-20.1z"/>
		<path id="Path 153" class="s1" d="m2087.3 3289.2c-27.1-1.8-56.9-8.2-82-18.6l0.4-5c5.6-1.7 11.1-3.5 17-4 26.6-2 43.6 3 64.5 18.7z"/>
		<path id="Path 154" class="s0" d="m1281.3 3387.7c17.6-1.3 36.5 1.8 54.1 3.3-37.8 13.5-78.9 20.2-117.8 30.5-85.5 22.7-173.1 48.8-254.9 82.8l-44.6 19.3c109.5-89.5 222.6-129.3 363.2-135.9z"/>
		<path id="Path 155" fill-rule="evenodd" class="s0" d="m968.7 3405.4c39.2-21.5 79.8-36.9 122-51.3 98.8-31.5 193.5-47.5 297.1-49.9-17.2-6.7-35.2-14.7-53.2-19.1-31.8-7.9-72.8-3.1-105.3-0.4-99.2 13.4-190 46.3-260.6 120.7zm-179.2 397.8c-7 8.6-13.8 17.5-19 27.3l107.5-85.9c128.3-77.8 281.7-134.8 431.6-150 50.5-5.1 104.1 1.7 153.5-7.3-14.2-8.4-38.4-12.2-54.7-14.6-42.1-6.2-86.7-10.6-129.2-7.5-179.3 16.1-373 96.4-489.7 238z"/>
		<path id="Path 156" class="s28" d="m2242.5 3251.8c-6.2-5.8-4.9-5.8-14-7.5-68.4-12.7-137.4-46.7-204.2-67.5-57-17.7-113.1-24.4-170.6-37.5 63.2-12.5 134.1-9.6 196.8 1.2 33.6 5.8 66.1 19.6 98.3 30.3 70.7 23.7 143.4 48.8 210.3 82 68.2 33.7 131.2 74.7 194.5 116.6 73.7 48.7 146.2 99 213.3 156.6 22.5 19.3 53.3 43 69 67.9l4.3 9.1-4.5 2.5c-61.7-58.6-130.3-104.1-201.3-150.4-66.3-43.2-131.9-85.2-203.2-119.9-28-13.6-56.6-29.4-86.5-37.9-28.8-27.6-64.9-35.9-102.2-45.5z"/>
		<path id="Path 157" class="s29" d="m1998.2 3296.6c36 8.6 80.3 21.9 117.4 20.1 42.8 2.4 85.7 12.2 127.8 20.1 51.6 9.7 102.6 18.5 152.2 36.7 63.3 23.2 126.4 56.1 185.2 89.1 108.1 60.7 205.7 128.4 293 216.7 43.5 44 86.6 93.5 112.8 150.2l2.4 5.4c10.7 23.1 13.9 46.5 17.9 71.4-38.7-44.9-71.1-93.5-113.1-136-143.2-144.6-349.1-243.9-539.5-311-86.6-30.6-182.2-55.4-264-96.6-24.3-12.2-84.1-41.3-92.1-66.1z"/>
		<path id="Path 158" class="s2" d="m1024.7 4384.2c135.8-108 294.5-176.7 459.4-227.4 191-58.7 389.4-97.3 589.5-101.1 377.9-7.4 749.2 110.5 1080 286.5 10.5 23.7 39.5 40.1 59.6 56.4l184.5 145 100.1 89.9c13.4 12.9 25.2 28.3 39.2 40.4 38.9 47.2 81.3 91 118.2 140 111 147.4 162.7 316.9 161.4 500.4-13-15.7-19-41.5-29.1-59.9-23.9-43.4-53.3-83.1-85.6-120.6-196.3-228.4-517.6-340.7-810.1-368.7-323.2-30.9-661.1 64.8-947.1 210-114.5 58.2-223.2 123.4-322.2 205.5-185.8 154.3-364.7 365.7-397.7 613.2-7.8 68.7-4.5 133.7 17.2 199.8 11.4 34.7 28.2 68.5 42.8 102l-24.7-25.1c-59.1-68.9-100.4-145.4-142.8-224.8-125.2-234.8-208.6-486.2-248.3-749.1-19.9-131.4-30.3-261.3-20.1-394.2 10.3-133.6 75.4-232.5 175.8-318.2z"/>
		<path id="Path 159" fill-rule="evenodd" class="s0" d="m1067.1 5372.8c12.7-18.4 19-39.5 28.1-59.7l39.4-80.2c28.7-54.7 65.2-101.5 101-151.4-58.6 42.1-90.5 92.8-124.3 155.5zm439.7-810.8l1.7 17.8c12.3 11.5 18.6 16.1 36.6 16.7 14.2 0.5 29.6-4.5 42.8-9.3 4.5-9.2 1.3-13.6 3.8-20.8 0.9-2.6 12.8-11.8 15.5-14.2-8.9-10.1-35.9-16.3-49.7-17.4l-30.6-0.1h-2c-9 8-16.7 14.6-18.1 27.3z"/>
		<path id="Path 160" fill-rule="evenodd" class="s0" d="m978.4 4658.7l3.9 1.9 39.1-38.5c39.4-39.4 92-75.1 142.2-99.3 28.4-13.7 58.6-23.3 86.7-37.8-27.8 4.7-57.1 8.2-83.9 16.8-71.2 22.6-120.4 67.8-165.9 125.1zm1551.8-17c61.9-2.4 123.2-1.5 185.1 2.9 12.2 0.8 31.3 5.2 41.4-1.1-3.9-7.1-10.7-8.4-17.9-11.8-115.7-21.5-226.5-15-339.9 14.6 39.4 6.1 90.6-3 131.3-4.6zm-1530.1 474.9l58.1-121.2c52.8-104.6 138-189.3 226.3-263.8-64.7 27.5-120.9 70.4-165.6 124.7l-64.9 96.7c-22.6 45.2-57.6 112.2-53.9 163.6z"/>
		<path id="Path 161" class="s0" d="m989.9 4824.3c76.5-121.5 165.3-220.8 304.8-265.8-92.5 59.1-176.5 137-242.4 225l-4.3 5.3c-28.8 36.6-52.3 78.3-74 119.5-14.1 26.6-23.4 58.8-44.8 80.4 10.3-57.8 33.6-112.7 60.7-164.4z"/>
		<path id="Path 162" class="s5" d="m1224.8 5793.8c-7.8 68.7-4.5 133.7 17.2 199.8 11.4 34.7 28.2 68.5 42.8 102l-24.7-25.1c-59.1-68.9-100.4-145.4-142.8-224.8-125.2-234.8-208.6-486.2-248.3-749.1-19.9-131.4-30.3-261.3-20.1-394.2 10.3-133.6 75.4-232.5 175.8-318.2 2.6 4.7 6.1 9 7.8 14.1 3.4 10.3-1.4 32.1-3.3 43.4l-22.2 128.3c-3.5 19.5-12.7 37.2-6.5 56.9l-22.1 31.8 3.9 1.9 39.1-38.5c6.6 17.4-3.9 37.2-8.3 54.5-11.1 44.7-31.3 102.3-23.2 147.7-27.1 51.7-50.4 106.6-60.7 164.4 21.4-21.6 30.7-53.8 44.8-80.4 21.7-41.2 45.2-82.9 74-119.5l4.3-5.3c10.8 13.7 10.4 20 8.2 36.9-5.5 44.1-17.8 88.3-6.4 132.6-22.7 45.3-57.6 112.3-53.9 163.7l58.1-121.2c11.7 23.3 14.4 50.9 33.4 69.7-0.3 9.1 0.4 9.8-4.3 17.8-6 9.9-9.7 20.9-13.9 31.6l-2.8 6.4c-3.1 7.2-4.8 13.8-7 21.2l-15.8 53.3 3.9 3.9c7.8-8.7 9.8-15 13.3-25.7l20.1-51.4c7.2 16.7 14.5 33.5 17.4 51.5 3.4 20.9-0.2 43.8 8.7 63.2l-44.2 135.8c12.7-18.4 19-39.5 28.1-59.7l39.4-80.2c3.7 3.1 13.9 9.5 16 13.2 10.4 18.5 8.3 33.9 24 53 55-103.9 128.6-184.7 234.7-237.1-69.4 66.6-140.4 132.1-190.6 215 17.1-1.9 20.6-4.6 35.4 5.3 5 11.3 5.9 20.8 1.6 32.9l-3.5 8.2c-25.4 61.2-50.9 136.5-57.6 202.7-6 59 1.3 122.3 9.9 180.8 3.1 20.8 2.5 51.7 10.7 70.7z"/>
		<path id="Path 163" class="s0" d="m1174.6 5299.1c55-103.9 128.6-184.7 234.7-237.1-69.4 66.6-140.4 132.1-190.6 215-62.8 105.5-110.3 235.5-115.6 359.1-6.5-11-5.7-22.7-6-35.1-1.3-47.6 6.5-94.6 18.2-140.6 14.3-56.5 35.2-108.4 59.3-161.3z"/>
		<path id="Path 164" class="s3" d="m2399 4646.4c-31.1 4.6-62.3 17.4-91.6 28.6-89.8 34.3-166.6 83.2-251.5 126.7-62.1 31.8-129.3 53.5-193.1 82.1-89.4 40-178.5 96-273.6 120.3-31.8 8.1-71.6 5.2-99.3-13.4-16.7-11.2-27.3-29.8-30.4-49.4-18.7-117 106-226.8 167.3-312.4 12.7-17.9 22.7-34.9 19.1-57-8.9-7.5-15.6-11-26.7-14.7l-3.5-1.1-0.3-7.9c12.1-3.2 30.6-6.1 40.8-13.5 7.4-5.3 7.4-9.9 9.2-18-10.6-12.4-30.8-14.3-46.4-19.1-72.4-21.9-146.8-28-218.8-49.4-7.2-34.2 0.8-91.4 20.4-119.9 27.6-40 75.3-72.7 117.9-95 102.6-53.6 215.3-81.7 328.3-102.7 89.9-16.7 187.9-9.3 279.1-8.4 27 0.3 54.8-5.5 81.1 2.7l2.9 1.1 5.9-4 3.4 3.9 10.4 0.5c13 2.6 28.1 0 39.8 4.1 24.1 8.4 53.3 7.7 78.6 12.6l98.7 23c140.1 33.5 283.6 90.5 411.1 156.9 112.6 58.6 215.5 140.4 312 222.1 83.8 70.9 174.9 149.1 233.3 243.3 15.9 25.7 26.5 53.6 35.6 82.3-63-17.7-119.6-50.5-179.7-75.6-90.3-37.8-454.2-183.2-533-165.2l-7.2 1.9c-115.6-21.5-226.4-15.1-339.8 14.6z"/>
		<path id="Path 165" fill-rule="evenodd" class="s0" d="m1755.4 4596.8l-3.7 10.6 5.5 8.7c11.6 0.7 18.9-0.3 30-3.5 23.9-7.4 57.8-14.3 73.1-34.8l-1.3-9.8c-12.8-9.7-20.3-10-36.3-9.7-27.3 9.5-45.6 19.1-67.3 38.5zm155.6-190.8c-3.9 5.7-2.2 7.8-1.3 14 22.5 12.9 61.6 1.5 86.4-4.4 18.9-3 76.8-6 88-19.3l-2.2-7.4c-23-12.1-60.7-12.6-86.6-10.9-26 2.9-68.1 4.7-84.3 28z"/>
		<path id="Path 166" class="s1" d="m1963.3 4180.7c71.3-16 147.6-13.4 220.1-8.3 72.3 5.1 145.4 11.6 216.2 27.6 130.9 29.7 258.9 85.3 379.6 143-16.7 3.1-48.6-18.6-65.6-25.9l-174.2-68.9c-12.6-5.2-16.1-4.3-29.6-2.6-14.1 1.7-23.4-1.1-38 3.2-13 3.9-25.6 3.8-39 3.8l-5.6 3.8-6.7-0.2c-8.9-0.2-18 0.8-24.7 7.2-4.2 4-2.5 3.3-2.1 10.5l12.5 1.3 2.8 7.1 2.4 3.5 4.3-0.7c13.4-1.8 19.4-1.9 31.2 4.6 7.7-0.9 12.7-2.9 19.9 0 7.2 2.9 12.4 1.7 19.6 3l7.9 3c6.3 1.3 7.3 0.8 12.8 1 5.6 0.1 7.7 1.7 12.9 2.9l6 0.9c7.8 1.3 4.5 0.2 11.7 5l7.9-1c8.2 4.1 8 5.1 17.8 4.3l4.4 2.2c8 3.8 3.3 1.8 13.3 3.3l13 3.6c3.5 1.1 7.1 1.6 10.7 2.4 4.4 1 11.8 2.5 15.8 4l3.8 2.4c7.2 4.5 1.2 1.2 12 3.4l27.6 10c15.7 4.8 32.3 9.4 47.4 15.7 5.2 2.2 10.5 2.5 15.8 4 21.5 6 67 24.3 84.9 37.7 5.3 3.9 7.7 3.1 13.7 4.7 14.1 3.9 27.4 14.3 40.5 20.7 28 13.9 81.7 31.9 98.9 58.2-20.6-7-41.4-20.5-60.8-30.7l-88.8-43.4c-135.2-61.2-265.4-95.4-411.5-117.5-30.8-25.3-90.1-37.2-128.3-48.6-61.8-18.2-124.7-40.2-188.4-50.2-40-6.3-81.4-2.1-120.8-9.3z"/>
		<path id="Path 167" class="s5" d="m2224.5 4379.6l-10.8-5c-56.6-26.5-122.4-37.2-183.6-48-57.2-10.1-113.9-21.2-170-36.1-20.1-5.4-61.2-12.5-71.6-30.4 11.4-35.6 93.1-52.8 125.6-60.7 12.1-2.9 29-4.6 38.3-12.8 6.4-5.6 1.9-3.2 10.9-5.9l3.3 0.7c39.4 7.2 80.8 3 120.8 9.3 63.7 10 126.6 32 188.4 50.2 38.2 11.4 97.5 23.3 128.3 48.6-58.9-0.7-122.1-2.7-176.2 24-8 10.5-6.7 18.3-4.7 31.5l6.2 23.8z"/>
		<path id="Path 168" class="s4" d="m2229.4 4368.8l-6.2-23.8c-2-13.2-3.3-21 4.7-31.5 54.1-26.7 117.3-24.7 176.2-24 146.1 22.1 276.3 56.3 411.5 117.5l88.8 43.4c19.4 10.2 40.2 23.7 60.8 30.7 66.8 39.5 128.5 79.6 187 130.9 23.8 20.9 50.1 44.5 66.1 72l-6.6 2.3c-33.2-30.1-75.8-51.1-114.6-73-189.9-107.3-403.8-188.8-619.9-224-81.5-13.3-161.4-12-242.8-19.9z"/>
		<path id="Path 169" class="s1" d="m2229.4 4368.8l5 0.6c81.4 7.9 161.3 6.6 242.8 19.9 216.1 35.2 430 116.7 619.9 224 38.8 21.9 81.4 42.9 114.6 73l6.6-2.3 0.1 3.6-3.8 5.6c-0.8 1.5-2 3.3-1.7 5 0.5 2.3 14.1 15.1 16.5 17.8 7.2 8.2 11.6 17.1 16.4 26.8-33.2-20-59.6-47.8-92.6-66.9 8.5 12.3 22.5 22.4 33.6 32.3l0.1 4c-16.1-0.9-30.3-15.6-43.6-24.3-32.6-21-64.9-42.4-99.5-60-108.1-55.2-236-96.3-354.1-124.7l-12.9 3.8-3.9 0.8c6.2 1.7 13.2 3.5 18.7 6.9 10.9 6.8 15.2 17.8 18.1 29.6-9.7 8.6-19.7 9.7-31.9 12.7-54.4 13.2-109.5 17.6-165.1 22.9-93.3 9-186.7 15.3-279 32.2-61 11.2-121.2 31.9-180.4 50-24.8 7.6-53.4 19.5-79.1 21.7-12.8 1.1-13.9 0.9-23.6-7.3-2-19.6 0.2-32.3 8.4-50.1l2.5-5.2c28.6-61.3 186.1-155.8 248.6-180.5 31.2-12.4 67.2-13.6 96.7-26.6-21-15.5-57.6-23.5-82.3-34.5z"/>
		<path id="Path 170" class="s0" d="m2494.5 4460.1c26.3-8 50.5-12.4 75.9 2.4 10.7 6.2 16.5 12.1 22.7 22.6 0.7 13.1 1.2 13.2-6.6 23.7-21.8 10.6-47.6 4.3-71.3 10.3l-15-4.8c-10-4.8-17-9.9-19.3-21.3-2.6-13 6.8-23.2 13.6-32.9z"/>
		<path id="Path 171" class="s3" d="m2515.2 4519.1c-9.1 6.1-15.5 10.3-26.9 10.6-50.2 1.3-98.9-12.2-148.7-14.2-62.2-2.7-124.1 5.7-186.2 8.2 61.8-35.8 132.7-43.6 202.5-53.1 46.8-6.4 91.3-14.1 138.6-10.5-6.8 9.7-16.2 19.9-13.6 32.9 2.3 11.4 9.3 16.5 19.3 21.3z"/>
		<path id="Path 172" class="s30" d="m2909.5 1380.2c94.2-65.2 188.8-126 293.8-172.5 78.3-34.7 159.7-66.9 241.9-91l294.5-75 284-89.2c147.7-42.1 313.6-63 465.7-36.4 33.4 5.8 80.8 15.2 110.5 31.3 23.1 12.6 45.1 34.1 65.1 51.3 89.4 76.7 161.7 160.6 228.4 257.5 78.7 114.3 151.8 242 205.5 370.4 97.5 207.6 161.4 432.7 191.5 660 19.8 149.9 22.6 307.3 14.8 458-11.5 222-46.4 438.7-126.3 647.2-50.7 132.5-117.2 255.6-188.2 378-48.7 83.9-93.6 169.1-153.2 246.1-78.1-111.8-131.1-230.9-196.2-349.5l-64.7-120.1c-7.9-14.5-21.4-33.3-26.4-48.5l-1.6-5.3-12.4-25.7-141.3-310.8c-32.6-61.6-53.3-130.2-77.7-195.3l-76-177.2c-62.3-131.5-123.3-266.2-197.8-391.3-129.2-217-300.4-404.7-494-565.8-82.3-68.6-169.5-139.8-260.8-196.1-52.2-32.2-106.3-63.7-161.2-91.2-52.9-26.5-107.8-49.6-159.5-78.3l-21.7-13.2c-28.5-21.4-32.1-32.3-36.7-67.4z"/>
		<path id="Path 173" class="s0" d="m4125.8 1117.5c-23.5-21.9-62.9-32.6-89.6-53.1 32.9 6.2 61.3 14.9 92 28.3l59.2 49.5v4.7l-18.3-4.9z"/>
		<path id="Path 174" class="s5" d="m4466.9 1040.8c31.3-0.8 65.7-1.7 95.5 6.8l4.5 0.4c11.1 1.4 21.5 7.1 30.3 13.6l0.2 9.2c-13.2 8.6-26.3 7.1-38 17.1 8 6.3 15.6 12.1 22.7 19.2l6.6 5.9 1.8 5.7c-14.8-0.4-29.5-19.9-41.5-28l-76.6-46.4z"/>
		<path id="Path 175" class="s0" d="m4148.2 1074.9c-18.8-13.1-41.4-23.8-56.9-40.8 40.8 7.5 70.6 18.3 106.8 37.8 42.6 25.5 80.7 53.1 101.2 100.2l-6.4 4.4c-47.5-35.5-88.8-78.1-144.7-101.6z"/>
		<path id="Path 176" class="s3" d="m4198.1 1071.9c27.7-22 86.3-25.8 121.6-31.3 47.1-7.3 99.6-3 147.2 0.2l5.5 3.5 76.6 46.4c12 8.1 26.7 27.6 41.5 28l6.6 3.6c40.7 21.6 81.7 37 120.3 63.3 63.8 43.6 128.2 102.1 176 162.6 38 48.1 68.1 102.3 97.9 155.6 54.9 98 99.4 197.4 133.3 304.6l9.8 31.5c15.9 33.1 23 71.2 32.9 106.5 53.4 188.8 61.8 378.9 58 573.8-4.1 210.2-22.3 414-87.8 614.9-31.7 97.5-72.6 204.6-136.5 285.7-21.5 27.3-45.6 52.3-77.4 67.5-26.6 12.6-57.3 16.7-85.4 6.8l-5.5-2.1c-62.8-22.9-106.2-72.9-147-123.6-91.9-114.4-162.6-251.9-216.1-387.9-50.4-128-91-260.2-149.8-384.8-77.2-163.4-171.5-319.5-280.1-463.8-180.2-239.5-410.8-445.5-669.9-596l-145.4-76.9c-36.9-17.9-77.1-33.8-110.6-57.4l2.3-2.1c43.8-38.7 97.4-64.8 148.8-91.5 144.6-75 297.9-134.5 456.9-171 44.1-10.1 88.9-21.1 134.1-24.4 54.6-3.9 114.9-3.6 169.1 4 21.1 3 51.3 14.8 71 14.3l4.1-0.5 4.8-0.5 3.6-0.5 5.9 11.8 29.6 0.1 2-4-12.9-9c-6-3.5-5.1-5.4-7.3-11.8l43.3 24.5c-14.4 5.9-27.2 8.9-42.8 9.4-5.8 0.2-23.2-2.1-27.7-0.3-3.9 1.6-13 13.7-16.5 17.4 16.6 1.9 34.7 3.1 50.6 8.7 25.4 8.9 49.9 23.2 73.7 35.6 3.8 2 16.9 9.8 20.9 9.5 7.9-0.5 49.1-30.5 56.8-37.1l8.8-8.7 6.4-4.4c-20.5-47.1-58.6-74.7-101.2-100.2z"/>
		<path id="Path 177" fill-rule="evenodd" class="s0" d="m4788.4 2914.3c2.7 12 5.3 22.3 16.7 28.9 7.8 4.6 18.5 5.8 27.3 6.8 10.4-11.5 14.1-14.2 17.3-29.8-3.2-10.2-7.2-23.5-17-29.6-8.1-5.1-16.9-6.4-26.2-7.5-9.9 10.6-16.1 16.6-18.1 31.2zm-334.5-1051.4c2.8 20.3 14.5 41.8 31.4 53.7 8.9 6.3 19.9 10.1 30 14.1 5.2-13.1 8.7-18.4 2.6-32.3-11-25.1-28.5-54.5-54.8-64.2-9.1 12.4-11.4 13-9.2 28.7z"/>
		<path id="Path 178" fill-rule="evenodd" class="s0" d="m4607 2604.5c0.2 12.7 0.1 19.6 8.9 29.6 10.4 11.8 25.2 16.6 39.9 20.8 10.6-6.4 22.3-11.7 25.4-24.8 2.5-10.2 0.1-21.1-5.9-29.7-11.2-15.9-23.5-21.2-42.1-24.4-13.1 8.8-19.9 13.8-26.2 28.5zm-664.4-1174.2c23.3 23.2 56.8 27.7 85.3 42.1 18.5 9.4 34.7 22.7 50.9 35.6-8.7-15.2-17.8-30.2-24.9-46.2-11.5-25.5-37.8-41-62.8-50.6-17-6.5-31.1-8.9-49.1-7.6-3.6 13.3-4.4 14.1 0.6 26.7zm-579-90.7c0.1 13.6 2.1 20.3 7.9 32.6 21.7 19.2 46.8 25.3 75.6 23.4l8-0.6c12.7-5 22.6-7.8 30.2-19.9-3.3-15.3-14-24.3-27.4-32.7-19-11.9-40-14.9-61.9-15.8-12.4 2.9-22.3 4.8-32.4 13z"/>
		<path id="Path 179" class="s0" d="m4155.3 1825.7c6.8 0.2 15.7-0.2 22.2 2.3 27.7 10.5 54.8 62 66.2 87.5 9.3 20.7 11.3 29.1 3.6 49.5-8.7-2.1-17.3-4.4-25.4-8.3-22.5-11.2-72.8-68.1-77.9-91.9-3.7-17.5 2.1-25.3 11.3-39.1z"/>
		<path id="Path 180" fill-rule="evenodd" class="s1" d="m3893.4 1277.6l67.1 10.7 71 11.8 59.2 11.9c6.2 1.2 9.4-0.5 15.5 2.2 8.8 4 22.3 1.9 31.9 1.7l3.9-3.9 4.5 1 1.1-4.1c-11.9-4.1-19.5-6.9-28.5-16.1l-6.6-6.5c-9.1-4.9-3.3 0.9-8.9-4.7-9.1-9.1-22.5-21.3-33.5-28-7.4-4.5-3.1-1.3-10.6-7.5l-22-17.2c-7.7-6-14.8-12.4-24.3-15.2-3.4-1-166.1 52.7-177.4 58.9 19.6 7 38.2 1.3 57.6 5zm1030.1 1012.7l-4.5-3c-11.5 19.6-7.6 44.3-8.7 66.3-0.8 18-4.9 32.4-10.5 49.2-5.4 16.2-4.3 22.2-19.7 31l-15.4 7.2c7 37.3 54.9 192.8 80.5 213.2l5.9-6.9c23-121.9-5.1-249.8-23.1-370.6z"/>
		<path id="Path 181" class="s31" d="m4299.3 1172.1c14.9-1 30.4-9.8 44.4-15 41.4-15.2 93.1-26.3 137.1-18.5l24 9.1c45.3 17.5 83.4 56.1 119.7 87.3 116.3 100.1 221.6 205 312.5 329.1 30.4 41.4 62.7 85.7 84.1 132.7l5.5 15.7 5.1 12c34.7 80.8 65.5 170.6 72.9 258.8 2.4 28-0.7 57.8-2.1 86-35.4-83.5-54.6-172.3-94.5-254.2-12.3-25.3-29.6-44.5-43.1-68-15.9-27.7-29.4-58.9-49.3-83.9l-8.1-3.3-11 9.4 32.5 53.4c12.6 18.8 29.5 46.4 25.7 69.2l90.9 289.9c8 13.6 10.2 25.6 13.5 40.8l11.7 95.1c2.5 16.1 1.2 32.3 3.9 48.4 3.6 21.8 1.8 46.4 2 68.6 0.4 41.9 1 84.1-3.6 125.7l-11.5 111.3c-2.1 13.6-3.3 29.7-11.8 40.9-15.8-1.4-15.5-3.2-26-14-22-145.1-35-297.9-110.9-427.4l-5.2 4.1 20.3 101.4-4.5 13.6-4.5-3c-11.5 19.6-7.6 44.3-8.7 66.3-0.8 18-4.9 32.4-10.5 49.2-5.4 16.2-4.3 22.2-19.7 31l-15.4 7.2c-64.9-198.6-134.9-389.3-232.5-574.7-33.1-29.7-60.1-70.1-89-104.2-119.4-140.9-254.8-310.5-440.6-361.5-64.2-17.6-128-41-192.9-55.2-60.6-13.3-136-9.5-192.6-32.8-21.3-8.8-44.1-6.1-66.4-10.7v-3.2c7.9-2.6 13.3-4 21.7-3.5l163.4-22.6c19.6 7 38.2 1.3 57.6 5l67.1 10.7 71 11.8 59.2 11.9c6.2 1.2 9.4-0.5 15.5 2.2 8.8 4 22.3 1.9 31.9 1.7l3.9-3.9 4.5 1 1.1-4.1c-13.1-19.1-33.8-38.8-51.8-53.3-29.4-23.7-55.2-45.7-88.6-64.3l74.9-22.8c16.6 1.9 34.7 3.1 50.6 8.7 25.4 8.9 49.9 23.2 73.7 35.6 3.8 2 16.9 9.8 20.9 9.5 7.9-0.5 49.1-30.5 56.8-37.1l8.8-8.7z"/>
		<path id="Path 182" fill-rule="evenodd" class="s0" d="m4451.7 1254.3l93.2 83.8c-16.4-41.4-30.8-64.5-64.6-94.8-8.8-8-20.5-20.8-31.8-24.9-2.9-1-7.9-1.3-10.7-1.6 0.2 17.8 0.2 24.4 13.9 37.5zm461.2 916.9c-6.6-87.1-38.5-181.2-75.6-259.8l-49.1-94.8-1.5-3.5-5.3-3.4c-3 15 18.9 60.4 24.7 77.9 31.9 95 58.6 197.3 101.6 287.7z"/>
		<path id="Path 183" class="s0" d="m4350.8 1327.5c10.8 1.8 20.2 6.1 30 11.1 101.1 51.8 159.4 143.4 192.8 248.6-26.1-32.5-43.3-69.8-71.8-100.9l-83-83.2c-24.5-22.8-53.9-44.6-68-75.6z"/>
		<path id="Path 184" class="s4" d="m4919.2 1822.8c-6.5-18.5-17.9-35.2-27.7-52-27.3-46.8-60.2-91.3-93.7-133.6-18.6-23.4-41.1-47.6-55-73.9-5.9-11.2-9.5-15.3-5.8-27.4 11.4-7.6 16.9-8.2 30.6-8.6 27.9 9.9 45 36.6 62.3 59.3 50.1 65.7 85.3 133.6 124.8 205.3l90.9 289.9-3.3-0.7c-0.2-0.1-6.9-4.3-7.2-4.7-19.2-24.3-30.9-71.2-43.5-100.7-22.2-52-45-103.3-72.4-152.9z"/>
		<path id="Path 185" class="s1" d="m4632.2 1866.3c-33.1-29.7-60.1-70.1-89-104.2-119.4-140.9-254.8-310.5-440.6-361.5-64.2-17.6-128-41-192.9-55.2-60.6-13.3-136-9.5-192.6-32.8-21.3-8.8-44.1-6.1-66.4-10.7v-3.2c7.9-2.6 13.3-4 21.7-3.5 14.3 8.7 18.6 8.5 35.5 8.8l5.9-3.9c12.1-0.1 29.5 2.3 39.5-4 13.7-0.4 24 3.7 36.1 4 57 1.1 107.9 5.8 163.2 15.1 16.3 2.7 31.4 3.5 47.4 8l13.8 2.1c39.3 6 80.6 15.4 118.4 27.6 186.4 60 350.3 207 441.1 379.4 21.4 40.5 50.1 89 58.9 134z"/>
	</g>
</svg>